<svg class="icon sidenav__icon" aria-hidden="true" viewBox="0 0 16 16">
    <g>
        <path d="M6,0H1C0.4,0,0,0.4,0,1v5c0,0.6,0.4,1,1,1h5c0.6,0,1-0.4,1-1V1C7,0.4,6.6,0,6,0z M5,5H2V2h3V5z"></path>
        <path d="M15,0h-5C9.4,0,9,0.4,9,1v5c0,0.6,0.4,1,1,1h5c0.6,0,1-0.4,1-1V1C16,0.4,15.6,0,15,0z M14,5h-3V2h3V5z"></path>
        <path d="M6,9H1c-0.6,0-1,0.4-1,1v5c0,0.6,0.4,1,1,1h5c0.6,0,1-0.4,1-1v-5C7,9.4,6.6,9,6,9z M5,14H2v-3h3V14z"></path>
        <path d="M15,9h-5c-0.6,0-1,0.4-1,1v5c0,0.6,0.4,1,1,1h5c0.6,0,1-0.4,1-1v-5C16,9.4,15.6,9,15,9z M14,14h-3v-3h3V14z"></path>
    </g>
</svg>
