<svg width="26" height="16" viewBox="0 0 26 16" fill="none" xmlns="http://www.w3.org/2000/svg">
<path d="M25.5857 14.8357C25.4554 15.1495 25.206 15.3988 24.8923 15.5291C24.7379 15.5949 24.5721 15.6298 24.4043 15.6318H17.9841C17.6436 15.6318 17.317 15.4966 17.0762 15.2557C16.8353 15.0149 16.7001 14.6883 16.7001 14.3478C16.7001 14.0072 16.8353 13.6806 17.0762 13.4398C17.317 13.199 17.6436 13.0637 17.9841 13.0637H21.3098L14.132 5.88592L9.90745 10.1233C9.78808 10.2436 9.64607 10.3391 9.48959 10.4043C9.33312 10.4695 9.16529 10.5031 8.99578 10.5031C8.82627 10.5031 8.65844 10.4695 8.50196 10.4043C8.34549 10.3391 8.20347 10.2436 8.0841 10.1233L0.379819 2.41899C0.259467 2.29962 0.163942 2.1576 0.0987521 2.00113C0.0335627 1.84466 0 1.67682 0 1.50731C0 1.3378 0.0335627 1.16997 0.0987521 1.0135C0.163942 0.857026 0.259467 0.71501 0.379819 0.595641C0.499188 0.475289 0.641205 0.379762 0.797678 0.314572C0.954151 0.249383 1.12198 0.21582 1.29149 0.21582C1.461 0.21582 1.62883 0.249383 1.78531 0.314572C1.94178 0.379762 2.0838 0.475289 2.20317 0.595641L8.99578 7.40109L13.2203 3.16373C13.3397 3.04338 13.4817 2.94786 13.6382 2.88267C13.7946 2.81748 13.9625 2.78392 14.132 2.78392C14.3015 2.78392 14.4693 2.81748 14.6258 2.88267C14.7823 2.94786 14.9243 3.04338 15.0436 3.16373L23.1203 11.2532V7.92755C23.1203 7.587 23.2556 7.2604 23.4964 7.01959C23.7372 6.77879 24.0638 6.6435 24.4043 6.6435C24.7449 6.6435 25.0715 6.77879 25.3123 7.01959C25.5531 7.2604 25.6884 7.587 25.6884 7.92755V14.3478C25.6864 14.5156 25.6515 14.6814 25.5857 14.8357Z" fill="#FF291C"/>
</svg>
