<svg width="23" height="23" viewBox="0 0 23 23" fill="none" xmlns="http://www.w3.org/2000/svg">
<path d="M11.5917 0.796387C9.42089 0.796387 7.29885 1.4401 5.4939 2.64613C3.68896 3.85215 2.28217 5.56632 1.45145 7.57187C0.620722 9.57742 0.403367 11.7843 0.826867 13.9133C1.25037 16.0424 2.2957 17.9981 3.83068 19.5331C5.36566 21.0681 7.32135 22.1134 9.45042 22.5369C11.5795 22.9604 13.7864 22.743 15.7919 21.9123C17.7974 21.0816 19.5116 19.6748 20.7176 17.8699C21.9237 16.0649 22.5674 13.9429 22.5674 11.7721C22.5639 8.86222 21.4064 6.07254 19.3488 4.01495C17.2912 1.95736 14.5015 0.799872 11.5917 0.796387ZM6.10382 19.7185C6.05501 19.2242 6.11043 18.7251 6.26651 18.2535C6.42259 17.7819 6.67586 17.3483 7.00996 16.9807C7.34406 16.6131 7.75156 16.3196 8.20613 16.1193C8.6607 15.919 9.15223 15.8163 9.64898 15.8177H13.5344C14.0311 15.8163 14.5227 15.919 14.9772 16.1193C15.4318 16.3196 15.8393 16.6131 16.1734 16.9807C16.5075 17.3483 16.7608 17.7819 16.9168 18.2535C17.0729 18.7251 17.1283 19.2242 17.0795 19.7185C15.4678 20.8363 13.5531 21.4352 11.5917 21.4352C9.63026 21.4352 7.7156 20.8363 6.10382 19.7185ZM18.3505 18.6561C18.1778 17.4993 17.595 16.4432 16.7085 15.6804C15.822 14.9176 14.6908 14.4989 13.5212 14.5007H9.64898C8.47981 14.5002 7.34932 14.9194 6.46307 15.682C5.57682 16.4446 4.99368 17.4999 4.81967 18.6561C3.4508 17.3126 2.51291 15.592 2.12553 13.7135C1.73814 11.835 1.9188 9.88377 2.64448 8.10835C3.37016 6.33293 4.60801 4.81377 6.20026 3.74446C7.79252 2.67515 9.66709 2.1041 11.5851 2.1041C13.5031 2.1041 15.3777 2.67515 16.9699 3.74446C18.5622 4.81377 19.8 6.33293 20.5257 8.10835C21.2514 9.88377 21.432 11.835 21.0447 13.7135C20.6573 15.592 19.7194 17.3126 18.3505 18.6561Z" fill="#A0B5BE"/>
<path d="M11.5914 5.29688C10.8151 5.29687 10.0563 5.52707 9.41085 5.95834C8.76541 6.38962 8.26234 7.00261 7.96527 7.71979C7.6682 8.43697 7.59048 9.22614 7.74192 9.9875C7.89337 10.7489 8.26718 11.4482 8.81609 11.9971C9.365 12.546 10.0643 12.9198 10.8257 13.0713C11.5871 13.2227 12.3762 13.145 13.0934 12.8479C13.8106 12.5509 14.4236 12.0478 14.8549 11.4024C15.2861 10.7569 15.5163 9.99806 15.5163 9.22179C15.5158 8.18102 15.102 7.18304 14.3661 6.4471C13.6302 5.71116 12.6322 5.29746 11.5914 5.29688ZM11.5914 11.8274C11.0755 11.8274 10.5713 11.6744 10.1424 11.3878C9.71346 11.1011 9.37921 10.6937 9.18189 10.2171C8.98458 9.74041 8.93306 9.21595 9.03386 8.71002C9.13466 8.20409 9.38325 7.73943 9.74818 7.3748C10.1131 7.01018 10.578 6.76198 11.084 6.66161C11.59 6.56123 12.1144 6.61319 12.5909 6.8109C13.0674 7.00862 13.4745 7.34322 13.7608 7.77236C14.0471 8.2015 14.1997 8.70592 14.1992 9.22179C14.1987 9.91305 13.9237 10.5758 13.4347 11.0644C12.9457 11.553 12.2827 11.8274 11.5914 11.8274Z" fill="#A0B5BE"/>
</svg>
