<svg width="19" height="20" viewBox="0 0 19 20" fill="none" xmlns="http://www.w3.org/2000/svg">
<path d="M13.5757 19.8613C14.7515 19.8613 15.8791 19.3942 16.7105 18.5628C17.5419 17.7314 18.009 16.6038 18.009 15.428C18.009 14.2522 17.5419 13.1245 16.7105 12.2931C15.8791 11.4617 14.7515 10.9946 13.5757 10.9946C12.3999 10.9946 11.2722 11.4617 10.4408 12.2931C9.60942 13.1245 9.14233 14.2522 9.14233 15.428C9.14233 16.6038 9.60942 17.7314 10.4408 18.5628C11.2722 19.3942 12.3999 19.8613 13.5757 19.8613ZM14.209 13.528V14.7946H15.4757C15.6436 14.7946 15.8047 14.8614 15.9235 14.9801C16.0423 15.0989 16.109 15.26 16.109 15.428C16.109 15.5959 16.0423 15.757 15.9235 15.8758C15.8047 15.9946 15.6436 16.0613 15.4757 16.0613H14.209V17.328C14.209 17.4959 14.1423 17.657 14.0235 17.7758C13.9047 17.8946 13.7436 17.9613 13.5757 17.9613C13.4077 17.9613 13.2466 17.8946 13.1278 17.7758C13.0091 17.657 12.9423 17.4959 12.9423 17.328V16.0613H11.6757C11.5077 16.0613 11.3466 15.9946 11.2278 15.8758C11.1091 15.757 11.0423 15.5959 11.0423 15.428C11.0423 15.26 11.1091 15.0989 11.2278 14.9801C11.3466 14.8614 11.5077 14.7946 11.6757 14.7946H12.9423V13.528C12.9423 13.36 13.0091 13.1989 13.1278 13.0801C13.2466 12.9614 13.4077 12.8946 13.5757 12.8946C13.7436 12.8946 13.9047 12.9614 14.0235 13.0801C14.1423 13.1989 14.209 13.36 14.209 13.528Z" fill="#A0B5BE"/>
<path d="M13.0639 7.47713C13.4681 7.29676 13.852 7.07383 14.209 6.81213V8.46133C14.209 8.82739 13.9392 9.28973 13.2552 9.73686C14.009 9.69408 14.7638 9.80172 15.4756 10.0535V4.66133C15.4756 3.38579 14.3673 2.43833 13.0639 1.84553C11.7035 1.22739 9.8681 0.861328 7.87563 0.861328C5.88317 0.861328 4.04777 1.22739 2.68737 1.84553C1.38397 2.43833 0.275635 3.38579 0.275635 4.66133V16.0613C0.275635 17.3369 1.38397 18.2843 2.68737 18.8771C4.04777 19.494 5.88317 19.8613 7.87563 19.8613C8.55457 19.8613 9.21577 19.8183 9.8453 19.7385C9.45007 19.3959 9.10358 19.0008 8.8155 18.5643C8.50897 18.5845 8.19483 18.5947 7.87563 18.5947C6.02123 18.5947 4.37203 18.2527 3.21177 17.7245C1.99323 17.1697 1.5423 16.5338 1.5423 16.0613V14.4121C1.88557 14.668 2.27697 14.8909 2.68737 15.0771C4.04777 15.694 5.88317 16.0613 7.87563 16.0613H7.90984C7.86332 15.6404 7.86332 15.2156 7.90984 14.7947H7.87563C6.02123 14.7947 4.37203 14.4527 3.21177 13.9245C1.99323 13.3697 1.5423 12.7338 1.5423 12.2613V10.6121C1.88557 10.868 2.27697 11.0909 2.68737 11.2771C4.04777 11.894 5.88317 12.2613 7.87563 12.2613C8.2075 12.2613 8.5343 12.2512 8.85604 12.2309C9.23364 11.6748 9.70613 11.1895 10.2519 10.7971C9.51977 10.9237 8.71923 10.9947 7.87563 10.9947C6.02123 10.9947 4.37203 10.6527 3.21177 10.1245C1.99323 9.56966 1.5423 8.93379 1.5423 8.46133V6.81213C1.88557 7.06799 2.27697 7.29093 2.68737 7.47713C4.04777 8.09526 5.88317 8.46133 7.87563 8.46133C9.8681 8.46133 11.7035 8.09526 13.0639 7.47713ZM1.5423 4.66133C1.5423 4.18759 1.99323 3.55299 3.21177 2.99819C4.37203 2.47126 6.02123 2.12799 7.87563 2.12799C9.73003 2.12799 11.3792 2.46999 12.5395 2.99819C13.758 3.55299 14.209 4.18886 14.209 4.66133C14.209 5.13506 13.758 5.76966 12.5395 6.32446C11.3792 6.8514 9.73003 7.19466 7.87563 7.19466C6.02123 7.19466 4.37203 6.85266 3.21177 6.32446C1.99323 5.76966 1.5423 5.13379 1.5423 4.66133Z" fill="#A0B5BE"/>
</svg>
