<svg width="21" height="20" viewBox="0 0 21 20" fill="none" xmlns="http://www.w3.org/2000/svg">
<path d="M20.8198 1.61303L20.6273 5.60921C20.6156 5.84426 20.5138 6.06578 20.3432 6.22788C20.1726 6.38998 19.9461 6.48023 19.7108 6.47993H19.6466C19.4116 6.46817 19.19 6.36643 19.0279 6.1958C18.8658 6.02517 18.7756 5.79873 18.7759 5.56338L18.84 4.20688L13.5057 10.4303C13.4208 10.5269 13.3166 10.6046 13.1997 10.6583C13.0829 10.712 12.956 10.7405 12.8274 10.7419C12.6986 10.7517 12.5693 10.7311 12.4499 10.6817C12.3305 10.6324 12.2244 10.5557 12.14 10.4578L7.76806 5.82918L1.61799 10.5036C1.45683 10.6245 1.26034 10.6889 1.05889 10.6869C0.918914 10.6866 0.780876 10.6542 0.655363 10.5922C0.529849 10.5303 0.420195 10.4404 0.33481 10.3295C0.18698 10.1373 0.121338 9.8943 0.15226 9.6538C0.183181 9.41329 0.308147 9.19485 0.49979 9.04629L7.32812 3.81276C7.50875 3.67392 7.73462 3.60732 7.96168 3.62596C8.18875 3.6446 8.40073 3.74714 8.5563 3.91358L12.7908 8.4047L17.5752 2.82288L16.0812 3.05202C15.8448 3.081 15.6065 3.01685 15.4166 2.87315C15.2267 2.72944 15.1002 2.51747 15.0638 2.28212C15.0456 2.16294 15.0511 2.04133 15.08 1.92427C15.1088 1.80721 15.1605 1.69699 15.232 1.59993C15.3035 1.50287 15.3935 1.42088 15.4967 1.35864C15.6 1.2964 15.7145 1.25515 15.8337 1.23724L19.7933 0.641484C19.9277 0.621572 20.0649 0.631802 20.1948 0.671432C20.3248 0.711062 20.4444 0.779101 20.5448 0.870622C20.6432 0.965951 20.719 1.08213 20.7666 1.21061C20.8142 1.33909 20.8324 1.4766 20.8198 1.61303ZM19.6466 17.2586H18.7301V10.7786C18.7301 10.5355 18.6335 10.3024 18.4616 10.1305C18.2897 9.95858 18.0566 9.86202 17.8135 9.86202C17.5704 9.86202 17.3373 9.95858 17.1654 10.1305C16.9935 10.3024 16.8969 10.5355 16.8969 10.7786V17.2586H13.744V14.4448C13.744 14.2017 13.6474 13.9686 13.4755 13.7967C13.3037 13.6248 13.0705 13.5282 12.8274 13.5282C12.5844 13.5282 12.3512 13.6248 12.1793 13.7967C12.0075 13.9686 11.9109 14.2017 11.9109 14.4448V17.2586H8.80377V10.7786C8.80377 10.5355 8.70721 10.3024 8.53532 10.1305C8.36343 9.95858 8.1303 9.86202 7.88722 9.86202C7.64413 9.86202 7.411 9.95858 7.23912 10.1305C7.06723 10.3024 6.97066 10.5355 6.97066 10.7786V17.2586H3.86354V13.5282C3.86354 13.2852 3.76698 13.052 3.59509 12.8801C3.4232 12.7082 3.19008 12.6117 2.94699 12.6117C2.7039 12.6117 2.47078 12.7082 2.29889 12.8801C2.127 13.052 2.03044 13.2852 2.03044 13.5282V17.2586H1.05889C0.815803 17.2586 0.582674 17.3552 0.410787 17.5271C0.238899 17.699 0.142334 17.9321 0.142334 18.1752C0.142334 18.4183 0.238899 18.6514 0.410787 18.8233C0.582674 18.9952 0.815803 19.0917 1.05889 19.0917H19.6466C19.8897 19.0917 20.1228 18.9952 20.2947 18.8233C20.4666 18.6514 20.5632 18.4183 20.5632 18.1752C20.5632 17.9321 20.4666 17.699 20.2947 17.5271C20.1228 17.3552 19.8897 17.2586 19.6466 17.2586Z" fill="#A0B5BE"/>
</svg>
