<svg width="25" height="13" viewBox="0 0 25 13" fill="none" xmlns="http://www.w3.org/2000/svg">
<path d="M7.79155 6.82617C7.79155 7.14443 7.91798 7.44966 8.14302 7.6747C8.36807 7.89974 8.67329 8.02617 8.99155 8.02617H16.1916C16.5098 8.02617 16.815 7.89974 17.0401 7.6747C17.2651 7.44966 17.3916 7.14443 17.3916 6.82617C17.3916 6.50791 17.2651 6.20269 17.0401 5.97764C16.815 5.7526 16.5098 5.62617 16.1916 5.62617H8.99155C8.67329 5.62617 8.36807 5.7526 8.14302 5.97764C7.91798 6.20269 7.79155 6.50791 7.79155 6.82617ZM10.1916 10.4262H6.59155C5.63677 10.4262 4.7211 10.0469 4.04597 9.37176C3.37084 8.69663 2.99155 7.78095 2.99155 6.82617C2.99155 5.87139 3.37084 4.95572 4.04597 4.28059C4.7211 3.60546 5.63677 3.22617 6.59155 3.22617H10.1916C10.5098 3.22617 10.815 3.09974 11.0401 2.8747C11.2651 2.64966 11.3916 2.34443 11.3916 2.02617C11.3916 1.70791 11.2651 1.40269 11.0401 1.17764C10.815 0.9526 10.5098 0.826172 10.1916 0.826172H6.59155C5.00025 0.826172 3.47413 1.45831 2.34891 2.58353C1.22369 3.70875 0.591553 5.23487 0.591553 6.82617C0.591553 8.41747 1.22369 9.94359 2.34891 11.0688C3.47413 12.194 5.00025 12.8262 6.59155 12.8262H10.1916C10.5098 12.8262 10.815 12.6997 11.0401 12.4747C11.2651 12.2497 11.3916 11.9444 11.3916 11.6262C11.3916 11.3079 11.2651 11.0027 11.0401 10.7776C10.815 10.5526 10.5098 10.4262 10.1916 10.4262ZM18.5916 0.826172H14.9916C14.6733 0.826172 14.3681 0.9526 14.143 1.17764C13.918 1.40269 13.7916 1.70791 13.7916 2.02617C13.7916 2.34443 13.918 2.64966 14.143 2.8747C14.3681 3.09974 14.6733 3.22617 14.9916 3.22617H18.5916C19.5463 3.22617 20.462 3.60546 21.1371 4.28059C21.8123 4.95572 22.1916 5.87139 22.1916 6.82617C22.1916 7.78095 21.8123 8.69663 21.1371 9.37176C20.462 10.0469 19.5463 10.4262 18.5916 10.4262H14.9916C14.6733 10.4262 14.3681 10.5526 14.143 10.7776C13.918 11.0027 13.7916 11.3079 13.7916 11.6262C13.7916 11.9444 13.918 12.2497 14.143 12.4747C14.3681 12.6997 14.6733 12.8262 14.9916 12.8262H18.5916C20.1829 12.8262 21.709 12.194 22.8342 11.0688C23.9594 9.94359 24.5916 8.41747 24.5916 6.82617C24.5916 5.23487 23.9594 3.70875 22.8342 2.58353C21.709 1.45831 20.1829 0.826172 18.5916 0.826172Z" fill="#A0B5BE"/>
</svg>
