<svg width="14" height="8" viewBox="0 0 14 8" fill="none" xmlns="http://www.w3.org/2000/svg">
<path fill-rule="evenodd" clip-rule="evenodd" d="M13.2987 1.67125C13.3807 1.58918 13.4268 1.4779 13.4268 1.36187C13.4268 1.24585 13.3807 1.13457 13.2987 1.05249L12.6799 0.433736C12.5979 0.351729 12.4866 0.305664 12.3705 0.305664C12.2545 0.305664 12.1432 0.351729 12.0612 0.433736L6.86131 5.63283L1.66222 0.433736C1.58014 0.351729 1.46886 0.305664 1.35284 0.305664C1.23682 0.305664 1.12554 0.351729 1.04346 0.433736L0.424703 1.05249C0.342696 1.13457 0.296631 1.24585 0.296631 1.36187C0.296631 1.4779 0.342696 1.58918 0.424703 1.67125L6.5527 7.79925C6.63477 7.88125 6.74605 7.92732 6.86208 7.92732C6.9781 7.92732 7.08938 7.88125 7.17146 7.79925L13.2987 1.67125Z" fill="#A0B5BE"/>
</svg>
