<svg width="10" height="6" viewBox="0 0 10 6" fill="none" xmlns="http://www.w3.org/2000/svg">
<path d="M0.628906 1.31709C0.630055 1.07758 0.723961 0.847827 0.890906 0.676085C1.06153 0.506869 1.2921 0.411922 1.53241 0.411922C1.77271 0.411922 2.00328 0.506869 2.17391 0.676085L4.92091 3.41409L7.66791 0.667086C7.83804 0.496949 8.0688 0.401367 8.30941 0.401367C8.55002 0.401367 8.78077 0.496949 8.95091 0.667086C9.12104 0.837222 9.21662 1.06798 9.21662 1.30858C9.21662 1.54919 9.12104 1.77995 8.95091 1.95008L5.56191 5.33709C5.47785 5.42119 5.37787 5.48768 5.2678 5.53267C5.15774 5.57766 5.0398 5.60024 4.92091 5.59908C4.68154 5.59721 4.45205 5.50341 4.27991 5.33709L0.890906 1.95809C0.725357 1.78543 0.631689 1.55627 0.628906 1.31709Z" fill="#4F6D7A"/>
</svg>
