<svg width="20" height="18" viewBox="0 0 20 18" fill="none" xmlns="http://www.w3.org/2000/svg">
<path d="M15.1048 0.085533C15.37 0.0191869 15.6468 0.0141413 15.9143 0.0707792C16.1818 0.127417 16.4328 0.24425 16.6484 0.412408C16.864 0.580565 17.0384 0.795628 17.1585 1.04127C17.2785 1.28691 17.341 1.55667 17.3412 1.83008V3.29386H17.9411C18.4185 3.29386 18.8762 3.48347 19.2137 3.82099C19.5513 4.15851 19.7409 4.61628 19.7409 5.09359V15.892C19.7409 16.3693 19.5513 16.8271 19.2137 17.1646C18.8762 17.5021 18.4185 17.6917 17.9411 17.6917H2.34344C1.86612 17.6917 1.40835 17.5021 1.07083 17.1646C0.733316 16.8271 0.543701 16.3693 0.543701 15.892V5.09359C0.543534 4.63029 0.722046 4.18476 1.04208 3.84976C1.36212 3.51475 1.79902 3.31606 2.26185 3.29506L15.1048 0.085533ZM7.21712 3.29386H16.1414V1.83008C16.1412 1.73905 16.1203 1.64927 16.0802 1.56753C16.0402 1.48578 15.9821 1.41422 15.9103 1.35827C15.8385 1.30231 15.7549 1.26343 15.6658 1.24456C15.5768 1.22569 15.4846 1.22733 15.3963 1.24936L7.21712 3.29386ZM2.34344 4.49368C2.18433 4.49368 2.03174 4.55689 1.91923 4.66939C1.80673 4.7819 1.74352 4.93449 1.74352 5.09359V15.892C1.74352 16.0511 1.80673 16.2037 1.91923 16.3162C2.03174 16.4287 2.18433 16.4919 2.34344 16.4919H17.9411C18.1002 16.4919 18.2528 16.4287 18.3653 16.3162C18.4778 16.2037 18.541 16.0511 18.541 15.892V5.09359C18.541 4.93449 18.4778 4.7819 18.3653 4.66939C18.2528 4.55689 18.1002 4.49368 17.9411 4.49368H2.34344Z" fill="#A0B5BE"/>
</svg>
