<svg width="12" height="21" viewBox="0 0 12 21" fill="none" xmlns="http://www.w3.org/2000/svg">
<path d="M11.1321 15.3275V6.79884C11.1321 6.40557 10.8147 6.08812 10.4214 6.08812C10.0281 6.08812 9.71067 6.40557 9.71067 6.79884V15.3275C9.71067 17.5497 7.90543 19.3549 5.68324 19.3549C3.46105 19.3549 1.65582 17.5497 1.65582 15.3275V4.42977C1.65582 2.99411 2.82614 1.82379 4.2618 1.82379C5.69746 1.82379 6.86778 2.99411 6.86778 4.42977V14.6168C6.86778 14.9309 6.74298 15.2322 6.52084 15.4544C6.29869 15.6765 5.9974 15.8013 5.68324 15.8013C5.36908 15.8013 5.06779 15.6765 4.84565 15.4544C4.6235 15.2322 4.49871 14.9309 4.49871 14.6168V5.3774C4.49871 4.98413 4.18125 4.66667 3.78798 4.66667C3.39472 4.66667 3.07726 4.98413 3.07726 5.3774V14.6168C3.07726 16.0524 4.24758 17.2228 5.68324 17.2228C7.1189 17.2228 8.28922 16.0524 8.28922 14.6168V4.42977C8.28922 2.20758 6.48399 0.402344 4.2618 0.402344C2.03961 0.402344 0.234375 2.20758 0.234375 4.42977V15.3275C0.234375 18.3315 2.67926 20.7764 5.68324 20.7764C8.68723 20.7764 11.1321 18.3315 11.1321 15.3275Z" fill="#0A9EF2"/>
</svg>
