<svg width="21" height="18" viewBox="0 0 21 18" fill="none" xmlns="http://www.w3.org/2000/svg">
<path d="M18.6344 0.113525H1.44908C1.06776 0.115594 0.702352 0.295061 0.431384 0.613352C0.160417 0.931643 0.00552497 1.36335 0 1.81568C0.000180266 2.27163 0.152887 2.70886 0.424583 3.03134C0.69628 3.35382 1.06475 3.53519 1.44908 3.53561H18.6344C19.0183 3.53519 19.3863 3.35426 19.658 3.03248C19.9296 2.7107 20.0826 2.2743 20.0835 1.81891C20.0787 1.36602 19.9241 0.933489 19.6531 0.614505C19.382 0.29552 19.0162 0.115608 18.6344 0.113525Z" fill="#31393C"/>
<path d="M18.6344 7.28076H1.44908C1.06741 7.28284 0.701701 7.46264 0.430677 7.78145C0.159653 8.10026 0.00499444 8.53259 0 8.98534C0.00036059 9.44115 0.153147 9.87817 0.424824 10.2005C0.6965 10.5228 1.06487 10.704 1.44908 10.7045H18.6344C19.0186 10.704 19.387 10.5228 19.6587 10.2005C19.9303 9.87817 20.0831 9.44115 20.0835 8.98534C20.0785 8.53259 19.9238 8.10026 19.6528 7.78145C19.3818 7.46264 19.0161 7.28284 18.6344 7.28076Z" fill="#31393C"/>
<path d="M1.44908 14.4505H9.31687C9.70107 14.4505 10.0695 14.6315 10.3413 14.9537C10.613 15.276 10.7658 15.713 10.7659 16.1688C10.766 16.6231 10.6143 17.0588 10.3441 17.3807C10.0739 17.7026 9.70725 17.8844 9.32436 17.8863H1.44772C1.06376 17.8863 0.695526 17.7054 0.424026 17.3833C0.152527 17.0612 0 16.6243 0 16.1688C0 15.7129 0.15267 15.2756 0.424425 14.9532C0.69618 14.6308 1.06476 14.4497 1.44908 14.4497V14.4505Z" fill="#31393C"/>
</svg>
