<svg width="23" height="17" viewBox="0 0 23 17" fill="none" xmlns="http://www.w3.org/2000/svg">
<path d="M7.536 13.4273L6.9448 14.0185C6.86598 14.0973 6.77533 14.1367 6.67285 14.1367C6.57038 14.1367 6.47973 14.0973 6.4009 14.0185L0.890945 8.50851C0.812118 8.42969 0.772705 8.33904 0.772705 8.23656C0.772705 8.13409 0.812118 8.04344 0.890945 7.96461L6.4009 2.45465C6.47973 2.37583 6.57038 2.33641 6.67285 2.33641C6.77533 2.33641 6.86598 2.37583 6.9448 2.45465L7.536 3.04585C7.61483 3.12468 7.65424 3.21533 7.65424 3.3178C7.65424 3.42027 7.61483 3.51092 7.536 3.58975L2.88919 8.23656L7.536 12.8834C7.61483 12.9622 7.65424 13.0528 7.65424 13.1553C7.65424 13.2578 7.61483 13.3484 7.536 13.4273ZM14.524 0.811123L10.1136 16.0758C10.0821 16.1783 10.021 16.2552 9.93035 16.3064C9.8397 16.3576 9.74708 16.3675 9.65249 16.336L8.9194 16.135C8.81693 16.1034 8.74007 16.0423 8.68884 15.9517C8.6376 15.861 8.62775 15.7645 8.65928 15.662L13.0696 0.397285C13.1011 0.294811 13.1622 0.217955 13.2529 0.166718C13.3435 0.115481 13.4361 0.105628 13.5307 0.137158L14.2638 0.338165C14.3663 0.369696 14.4432 0.430786 14.4944 0.521436C14.5456 0.612087 14.5555 0.708649 14.524 0.811123ZM22.2923 8.50851L16.7823 14.0185C16.7035 14.0973 16.6128 14.1367 16.5104 14.1367C16.4079 14.1367 16.3173 14.0973 16.2384 14.0185L15.6472 13.4273C15.5684 13.3484 15.529 13.2578 15.529 13.1553C15.529 13.0528 15.5684 12.9622 15.6472 12.8834L20.294 8.23656L15.6472 3.58975C15.5684 3.51092 15.529 3.42027 15.529 3.3178C15.529 3.21533 15.5684 3.12468 15.6472 3.04585L16.2384 2.45465C16.3173 2.37583 16.4079 2.33641 16.5104 2.33641C16.6128 2.33641 16.7035 2.37583 16.7823 2.45465L22.2923 7.96461C22.3711 8.04344 22.4105 8.13409 22.4105 8.23656C22.4105 8.33904 22.3711 8.42969 22.2923 8.50851Z" fill="#A0B5BE"/>
</svg>
