<svg width="27" height="16" viewBox="0 0 27 16" fill="none" xmlns="http://www.w3.org/2000/svg">
<path d="M26.3952 1.01193C26.2649 0.698173 26.0156 0.448843 25.7019 0.318544C25.5475 0.252748 25.3817 0.217849 25.2139 0.21582H18.7937C18.4531 0.21582 18.1265 0.351104 17.8857 0.591909C17.6449 0.832715 17.5096 1.15932 17.5096 1.49987C17.5096 1.84042 17.6449 2.16702 17.8857 2.40783C18.1265 2.64863 18.4531 2.78392 18.7937 2.78392H22.1194L14.9415 9.96174L10.717 5.72438C10.5977 5.60403 10.4556 5.50851 10.2992 5.44332C10.1427 5.37813 9.97486 5.34456 9.80535 5.34456C9.63584 5.34456 9.46801 5.37813 9.31153 5.44332C9.15506 5.50851 9.01304 5.60403 8.89367 5.72438L1.18939 13.4287C1.06904 13.548 0.973512 13.6901 0.908322 13.8465C0.843133 14.003 0.80957 14.1708 0.80957 14.3403C0.80957 14.5099 0.843133 14.6777 0.908322 14.8342C0.973512 14.9906 1.06904 15.1326 1.18939 15.252C1.30876 15.3724 1.45078 15.4679 1.60725 15.5331C1.76372 15.5983 1.93155 15.6318 2.10106 15.6318C2.27057 15.6318 2.4384 15.5983 2.59488 15.5331C2.75135 15.4679 2.89337 15.3724 3.01274 15.252L9.80535 8.44656L14.0299 12.6839C14.1492 12.8043 14.2913 12.8998 14.4477 12.965C14.6042 13.0302 14.772 13.0637 14.9415 13.0637C15.111 13.0637 15.2789 13.0302 15.4354 12.965C15.5918 12.8998 15.7338 12.8043 15.8532 12.6839L23.9299 4.59442V7.9201C23.9299 8.26066 24.0652 8.58726 24.306 8.82806C24.5468 9.06887 24.8734 9.20415 25.2139 9.20415C25.5545 9.20415 25.8811 9.06887 26.1219 8.82806C26.3627 8.58726 26.498 8.26066 26.498 7.9201V1.49987C26.4959 1.33207 26.461 1.1663 26.3952 1.01193Z" fill="#068AF0"/>
</svg>
