<svg width="15" height="19" viewBox="0 0 15 19" fill="none" xmlns="http://www.w3.org/2000/svg">
<path d="M9.27466 1.39355H2.76743C2.33598 1.39355 1.92219 1.56495 1.61711 1.87004C1.31202 2.17512 1.14063 2.58891 1.14062 3.02036V16.0348C1.14063 16.4663 1.31202 16.8801 1.61711 17.1851C1.92219 17.4902 2.33598 17.6616 2.76743 17.6616H12.5283C12.9597 17.6616 13.3735 17.4902 13.6786 17.1851C13.9837 16.8801 14.1551 16.4663 14.1551 16.0348V6.27397L9.27466 1.39355Z" stroke="#A0B5BE" stroke-width="1.5" stroke-linecap="round" stroke-linejoin="round"/>
<path d="M9.27466 1.39355V6.27397H14.1551" stroke="#A0B5BE" stroke-width="1.5" stroke-linecap="round" stroke-linejoin="round"/>
<path d="M10.9015 10.3408H4.39429" stroke="#A0B5BE" stroke-width="1.5" stroke-linecap="round" stroke-linejoin="round"/>
<path d="M10.9015 13.5945H4.39429" stroke="#A0B5BE" stroke-width="1.5" stroke-linecap="round" stroke-linejoin="round"/>
<path d="M6.02109 7.0874H5.20769H4.39429" stroke="#A0B5BE" stroke-width="1.5" stroke-linecap="round" stroke-linejoin="round"/>
</svg>
