<svg width="19" height="19" viewBox="0 0 19 19" fill="none" xmlns="http://www.w3.org/2000/svg">
<path d="M17.1709 1.78103L16.0752 5.12718L18.1153 7.95939L14.7051 7.91395L12.736 10.7994L11.7235 7.42507L8.4668 6.37602L11.2509 4.33589L11.2078 0.80249L13.9413 2.91548L17.1709 1.78103Z" fill="#EAF4F8"/>
<path d="M7.65529 11.1113C4.80913 8.16316 4.13011 3.82045 5.61519 0.205566C4.81518 0.668591 4.06886 1.26245 3.40722 1.99107C0.0725921 5.66314 0.0725921 11.4012 3.40722 15.0733C7.03751 19.0713 13.2138 19.0713 16.8433 15.0733C17.3582 14.506 17.793 13.8887 18.1492 13.2384C14.6663 14.7591 10.4924 14.0508 7.65529 11.1113Z" fill="#EAF4F8"/>
</svg>
