<svg width="21" height="21" viewBox="0 0 21 21" fill="none" xmlns="http://www.w3.org/2000/svg">
<path d="M2.63928 0.861572C1.26858 0.861572 0.142334 1.98782 0.142334 3.35852V7.5239C0.142334 8.8946 1.26858 10.029 2.63928 10.029H6.81117C8.18187 10.029 9.30812 8.8946 9.30812 7.5239V3.35852C9.30812 1.98782 8.18187 0.861572 6.81117 0.861572H2.63928ZM13.4735 0.861572C12.1028 0.861572 10.9765 1.98782 10.9765 3.35852V7.5239C10.9765 8.8946 12.1028 10.029 13.4735 10.029H17.6454C19.0161 10.029 20.1423 8.8946 20.1423 7.5239V3.35852C20.1423 1.98782 19.0161 0.861572 17.6454 0.861572H13.4735ZM2.63928 2.52838H6.81117C7.28729 2.52838 7.64132 2.8824 7.64132 3.35852V7.5239C7.64132 8.00002 7.28729 8.36056 6.81117 8.36056H2.63928C2.16316 8.36056 1.80914 8.00002 1.80914 7.5239V3.35852C1.80914 2.8824 2.16316 2.52838 2.63928 2.52838ZM13.4735 2.52838H17.6454C18.1215 2.52838 18.4755 2.8824 18.4755 3.35852V7.5239C18.4755 8.00002 18.1215 8.36056 17.6454 8.36056H13.4735C12.9974 8.36056 12.6434 8.00002 12.6434 7.5239V3.35852C12.6434 2.8824 12.9974 2.52838 13.4735 2.52838ZM2.63928 11.6958C1.26858 11.6958 0.142334 12.822 0.142334 14.1927V18.3646C0.142334 19.7353 1.26858 20.8616 2.63928 20.8616H6.81117C8.18187 20.8616 9.30812 19.7353 9.30812 18.3646V14.1927C9.30812 12.822 8.18187 11.6958 6.81117 11.6958H2.63928ZM13.4735 11.6958C12.1028 11.6958 10.9765 12.822 10.9765 14.1927V18.3646C10.9765 19.7353 12.1028 20.8616 13.4735 20.8616H17.6454C19.0161 20.8616 20.1423 19.7353 20.1423 18.3646V14.1927C20.1423 12.822 19.0161 11.6958 17.6454 11.6958H13.4735ZM2.63928 13.3626H6.81117C7.28729 13.3626 7.64132 13.7166 7.64132 14.1927V18.3646C7.64132 18.8407 7.28729 19.1948 6.81117 19.1948H2.63928C2.16316 19.1948 1.80914 18.8407 1.80914 18.3646V14.1927C1.80914 13.7166 2.16316 13.3626 2.63928 13.3626ZM13.4735 13.3626H17.6454C18.1215 13.3626 18.4755 13.7166 18.4755 14.1927V18.3646C18.4755 18.8407 18.1215 19.1948 17.6454 19.1948H13.4735C12.9974 19.1948 12.6434 18.8407 12.6434 18.3646V14.1927C12.6434 13.7166 12.9974 13.3626 13.4735 13.3626Z" fill="#0A9EF2"/>
</svg>
