<svg width="19" height="20" viewBox="0 0 19 20" fill="none" xmlns="http://www.w3.org/2000/svg">
<path d="M16.2776 3.51857H13.9516V1.77557C13.9571 1.66448 13.9399 1.55343 13.9012 1.44917C13.8625 1.3449 13.803 1.2496 13.7263 1.16903C13.6496 1.08847 13.5573 1.02432 13.4551 0.980492C13.3529 0.936663 13.2428 0.914062 13.1316 0.914062C13.0204 0.914062 12.9103 0.936663 12.8081 0.980492C12.7058 1.02432 12.6136 1.08847 12.5369 1.16903C12.4602 1.2496 12.4007 1.3449 12.362 1.44917C12.3232 1.55343 12.3061 1.66448 12.3116 1.77557V3.51857H7.05159V1.77557C7.05708 1.66448 7.03994 1.55343 7.00121 1.44917C6.96248 1.3449 6.90296 1.2496 6.82628 1.16903C6.7496 1.08847 6.65734 1.02432 6.55511 0.980492C6.45289 0.936663 6.34282 0.914063 6.23159 0.914062C6.12037 0.914063 6.0103 0.936663 5.90808 0.980492C5.80585 1.02432 5.71359 1.08847 5.63691 1.16903C5.56023 1.2496 5.50071 1.3449 5.46198 1.44917C5.42325 1.55343 5.40611 1.66448 5.41159 1.77557V3.51857H3.08559C2.41825 3.53431 1.78441 3.81418 1.32321 4.29676C0.861998 4.77934 0.611105 5.4252 0.625594 6.09257V17.2296C0.611642 17.8966 0.862774 18.5419 1.32392 19.0241C1.78507 19.5062 2.4186 19.7858 3.08559 19.8016H16.2776C16.9446 19.7858 17.5781 19.5062 18.0393 19.0241C18.5004 18.5419 18.7515 17.8966 18.7376 17.2296V6.09257C18.7521 5.4252 18.5012 4.77934 18.04 4.29676C17.5788 3.81418 16.9449 3.53431 16.2776 3.51857ZM17.0946 17.2276C17.0986 17.4497 17.0147 17.6644 16.8611 17.825C16.7075 17.9855 16.4967 18.0788 16.2746 18.0846H3.08259C2.97241 18.0824 2.86375 18.0584 2.76285 18.0141C2.66194 17.9698 2.57078 17.906 2.49459 17.8264C2.4184 17.7468 2.35869 17.6529 2.31888 17.5501C2.27907 17.4474 2.25994 17.3377 2.26259 17.2276V8.62757H17.0936L17.0946 17.2276ZM17.0946 6.91757H2.26159V6.09357C2.2573 5.87136 2.34114 5.65648 2.49479 5.4959C2.64844 5.33531 2.85941 5.24208 3.08159 5.23657H16.2736C16.4957 5.24234 16.7065 5.33566 16.8601 5.49618C17.0137 5.65671 17.0976 5.87144 17.0936 6.09357L17.0946 6.91757Z" fill="#0A9EF2"/>
<path d="M5.31699 12.6757H5.643C5.86535 12.6681 6.07606 12.5744 6.23067 12.4144C6.38529 12.2545 6.47171 12.0407 6.47171 11.8182C6.47171 11.5957 6.38529 11.3819 6.23067 11.2219C6.07606 11.062 5.86535 10.9683 5.643 10.9607H5.31699C5.09464 10.9683 4.88393 11.062 4.72932 11.2219C4.5747 11.3819 4.48828 11.5957 4.48828 11.8182C4.48828 12.0407 4.5747 12.2545 4.72932 12.4144C4.88393 12.5744 5.09464 12.6681 5.31699 12.6757Z" fill="#0A9EF2"/>
<path d="M9.52011 12.6757H9.84612C10.0685 12.6681 10.2792 12.5744 10.4338 12.4144C10.5884 12.2545 10.6748 12.0407 10.6748 11.8182C10.6748 11.5957 10.5884 11.3819 10.4338 11.2219C10.2792 11.062 10.0685 10.9683 9.84612 10.9607H9.52011C9.29776 10.9683 9.08705 11.062 8.93243 11.2219C8.77782 11.3819 8.69141 11.5957 8.69141 11.8182C8.69141 12.0407 8.77782 12.2545 8.93243 12.4144C9.08705 12.5744 9.29776 12.6681 9.52011 12.6757Z" fill="#0A9EF2"/>
<path d="M13.7193 12.6757H14.0453C14.2677 12.6681 14.4784 12.5744 14.633 12.4144C14.7876 12.2545 14.8741 12.0407 14.8741 11.8182C14.8741 11.5957 14.7876 11.3819 14.633 11.2219C14.4784 11.062 14.2677 10.9683 14.0453 10.9607H13.7193C13.497 10.9683 13.2863 11.062 13.1317 11.2219C12.9771 11.3819 12.8906 11.5957 12.8906 11.8182C12.8906 12.0407 12.9771 12.2545 13.1317 12.4144C13.2863 12.5744 13.497 12.6681 13.7193 12.6757Z" fill="#0A9EF2"/>
<path d="M5.31699 15.7636H5.643C5.86535 15.756 6.07606 15.6623 6.23067 15.5023C6.38529 15.3424 6.47171 15.1286 6.47171 14.9061C6.47171 14.6836 6.38529 14.4698 6.23067 14.3098C6.07606 14.1498 5.86535 14.0562 5.643 14.0486H5.31699C5.09464 14.0562 4.88393 14.1498 4.72932 14.3098C4.5747 14.4698 4.48828 14.6836 4.48828 14.9061C4.48828 15.1286 4.5747 15.3424 4.72932 15.5023C4.88393 15.6623 5.09464 15.756 5.31699 15.7636Z" fill="#0A9EF2"/>
<path d="M9.52011 15.7636H9.84612C10.0685 15.756 10.2792 15.6623 10.4338 15.5023C10.5884 15.3424 10.6748 15.1286 10.6748 14.9061C10.6748 14.6836 10.5884 14.4698 10.4338 14.3098C10.2792 14.1498 10.0685 14.0562 9.84612 14.0486H9.52011C9.29776 14.0562 9.08705 14.1498 8.93243 14.3098C8.77782 14.4698 8.69141 14.6836 8.69141 14.9061C8.69141 15.1286 8.77782 15.3424 8.93243 15.5023C9.08705 15.6623 9.29776 15.756 9.52011 15.7636Z" fill="#0A9EF2"/>
<path d="M13.7193 15.7636H14.0453C14.2677 15.756 14.4784 15.6623 14.633 15.5023C14.7876 15.3424 14.8741 15.1286 14.8741 14.9061C14.8741 14.6836 14.7876 14.4698 14.633 14.3098C14.4784 14.1498 14.2677 14.0562 14.0453 14.0486H13.7193C13.497 14.0562 13.2863 14.1498 13.1317 14.3098C12.9771 14.4698 12.8906 14.6836 12.8906 14.9061C12.8906 15.1286 12.9771 15.3424 13.1317 15.5023C13.2863 15.6623 13.497 15.756 13.7193 15.7636Z" fill="#0A9EF2"/>
</svg>
