<svg width="18" height="21" viewBox="0 0 18 21" fill="none" xmlns="http://www.w3.org/2000/svg">
<path d="M1.14062 4.95698H17.2714M15.5734 5.80597V17.6918C15.5734 18.3673 15.3051 19.0151 14.8274 19.4928C14.3498 19.9704 13.7019 20.2387 13.0264 20.2387H5.38556C4.71006 20.2387 4.06223 19.9704 3.58459 19.4928C3.10694 19.0151 2.8386 18.3673 2.8386 17.6918V5.80597M7.08353 4.95698V2.41002C7.08353 2.18486 7.17298 1.96891 7.33219 1.8097C7.49141 1.65048 7.70735 1.56104 7.93252 1.56104H10.4795C10.7046 1.56104 10.9206 1.65048 11.0798 1.8097C11.239 1.96891 11.3285 2.18486 11.3285 2.41002V4.95698M7.08353 9.20191V15.1448M11.3285 9.20191V15.1448" stroke="#E33429" stroke-width="1.4" stroke-linecap="round" stroke-linejoin="round"/>
</svg>
