<svg width="20" height="23" viewBox="0 0 20 23" fill="none" xmlns="http://www.w3.org/2000/svg">
<path d="M17.697 4.02362L15.2 1.52664C14.3386 0.666654 13.172 0.182426 11.9548 0.179688H4.07786C3.03331 0.179688 2.03155 0.59463 1.29295 1.33323C0.554347 2.07184 0.139404 3.0736 0.139404 4.11814V18.2966C0.139404 19.3411 0.554347 20.3429 1.29295 21.0815C2.03155 21.8201 3.03331 22.235 4.07786 22.235H15.1055C16.1501 22.235 17.1518 21.8201 17.8904 21.0815C18.629 20.3429 19.044 19.3411 19.044 18.2966V7.2689C19.0452 6.66577 18.9268 6.06839 18.6956 5.51134C18.4644 4.95428 18.125 4.44862 17.697 4.02362ZM16.5864 5.13426C16.71 5.26158 16.8232 5.39855 16.9251 5.54386L16.996 5.69352C17.1505 5.93818 17.2698 6.20334 17.3504 6.48121H13.5301C13.3212 6.48121 13.1209 6.39822 12.9732 6.2505C12.8254 6.10278 12.7425 5.90243 12.7425 5.69352V1.87322C12.863 1.90164 12.9815 1.93849 13.0969 1.9835C13.2558 2.055 13.4086 2.1393 13.5538 2.23556L13.6641 2.30645C13.8111 2.40309 13.9482 2.5139 14.0737 2.63728L16.5864 5.13426ZM15.1055 20.6596H4.07786C3.45113 20.6596 2.85008 20.4107 2.40691 19.9675C1.96375 19.5244 1.71479 18.9233 1.71479 18.2966V4.11814C1.71479 3.49141 1.96375 2.89036 2.40691 2.4472C2.85008 2.00403 3.45113 1.75507 4.07786 1.75507H11.1671V5.69352C11.1671 6.32025 11.416 6.9213 11.8592 7.36447C12.3024 7.80763 12.9034 8.05659 13.5301 8.05659H17.4686V18.2966C17.4686 18.9233 17.2196 19.5244 16.7765 19.9675C16.3333 20.4107 15.7323 20.6596 15.1055 20.6596Z" fill="#A0B5BE"/>
<path d="M12.7425 12.7828H10.3795V10.4198C10.3795 10.2109 10.2965 10.0105 10.1488 9.86279C10.001 9.71507 9.80068 9.63208 9.59177 9.63208C9.38286 9.63208 9.18251 9.71507 9.03479 9.86279C8.88707 10.0105 8.80408 10.2109 8.80408 10.4198V12.7828H6.44101C6.2321 12.7828 6.03175 12.8658 5.88403 13.0136C5.73631 13.1613 5.65332 13.3616 5.65332 13.5705C5.65332 13.7794 5.73631 13.9798 5.88403 14.1275C6.03175 14.2752 6.2321 14.3582 6.44101 14.3582H8.80408V16.7213C8.80408 16.9302 8.88707 17.1306 9.03479 17.2783C9.18251 17.426 9.38286 17.509 9.59177 17.509C9.80068 17.509 10.001 17.426 10.1488 17.2783C10.2965 17.1306 10.3795 16.9302 10.3795 16.7213V14.3582H12.7425C12.9514 14.3582 13.1518 14.2752 13.2995 14.1275C13.4472 13.9798 13.5302 13.7794 13.5302 13.5705C13.5302 13.3616 13.4472 13.1613 13.2995 13.0136C13.1518 12.8658 12.9514 12.7828 12.7425 12.7828Z" fill="#A0B5BE"/>
</svg>
