<svg width="22" height="21" viewBox="0 0 22 21" fill="none" xmlns="http://www.w3.org/2000/svg">
<path d="M17.0892 7.11133C19.2642 7.12344 19.5648 7.21989 20.3332 7.98828C21.2119 8.86698 21.2119 10.2812 21.2119 13.1096V14.1096C21.2119 16.938 21.2119 18.3523 20.3332 19.2309C19.4545 20.1096 18.0403 20.1096 15.2119 20.1096H7.21191C4.38348 20.1096 2.96927 20.1096 2.09059 19.2309C1.21191 18.3523 1.21191 16.938 1.21191 14.1096V13.1096C1.21191 10.2812 1.21191 8.86698 2.09059 7.98827C2.85897 7.21989 3.50367 7.12344 5.6787 7.11133" stroke="#0A9EF2" stroke-width="1.5" stroke-linecap="round"/>
<path d="M11.2119 14.6113V1.61133M11.2119 1.61133L14.2119 5.11133M11.2119 1.61133L8.21191 5.11133" stroke="#0A9EF2" stroke-width="1.5" stroke-linecap="round" stroke-linejoin="round"/>
</svg>
