<svg width="20" height="21" viewBox="0 0 20 21" fill="none" xmlns="http://www.w3.org/2000/svg">
<path d="M3.10988 20.8999C2.48448 20.8992 1.88477 20.6379 1.44184 20.173C0.998904 19.7081 0.748765 19.0775 0.746094 18.419L0.746094 4.47556C0.748765 3.81707 0.998904 3.18648 1.44184 2.7216C1.88477 2.25673 2.48448 1.99538 3.10988 1.99468H8.10024C8.2666 1.99416 8.43014 2.03989 8.57433 2.12725C8.71852 2.21461 8.83826 2.34049 8.92144 2.49219C9.00223 2.64372 9.04466 2.81458 9.04466 2.98836C9.04466 3.16214 9.00223 3.333 8.92144 3.48454C8.83826 3.63623 8.71852 3.76212 8.57433 3.84948C8.43014 3.93683 8.2666 3.98256 8.10024 3.98204H3.10988C3.04802 3.98151 2.98668 3.99395 2.92943 4.01863C2.87218 4.04331 2.82017 4.07974 2.77643 4.1258C2.73269 4.17185 2.69809 4.22662 2.67465 4.28689C2.65121 4.34717 2.6394 4.41176 2.6399 4.47689V18.419C2.63923 18.4843 2.65091 18.5491 2.67426 18.6096C2.69761 18.6701 2.73216 18.7251 2.7759 18.7714C2.81965 18.8178 2.8717 18.8544 2.92904 18.8793C2.98638 18.9042 3.04785 18.9169 3.10988 18.9165H16.3489C16.4766 18.9174 16.5996 18.8653 16.6912 18.7715C16.776 18.6762 16.8214 18.5495 16.8176 18.419V13.1606C16.8191 12.9857 16.8642 12.8142 16.9482 12.6632C17.0322 12.5122 17.1522 12.387 17.2964 12.3C17.4378 12.2128 17.5987 12.1668 17.7626 12.1668C17.9265 12.1668 18.0874 12.2128 18.2288 12.3C18.3733 12.3864 18.4938 12.5113 18.5783 12.662C18.6627 12.8128 18.7082 12.9843 18.7101 13.1593V18.419C18.7078 19.0776 18.4577 19.7084 18.0147 20.1734C17.5717 20.6383 16.9718 20.8996 16.3463 20.8999H3.10988ZM7.22724 15.5657C6.85225 15.5624 6.49188 15.4121 6.21654 15.144C6.06085 14.9709 5.94556 14.7621 5.87978 14.5339C5.814 14.3058 5.79953 14.0647 5.83752 13.8297L6.40604 10.1822L14.5309 1.62222C14.9796 1.15919 15.5829 0.899857 16.2111 0.899902C16.8349 0.900038 17.4334 1.15965 17.8763 1.62222L19.0651 2.86199C19.5012 3.33384 19.7451 3.9662 19.7451 4.62454C19.7451 5.28289 19.5012 5.91525 19.0651 6.3871L10.929 14.9684L7.46728 15.5657H7.22724ZM8.17352 11.1254L7.7945 13.4812L10.0294 13.0821L16.5093 6.2594L14.6559 4.30263L8.17352 11.1254ZM17.8409 4.82142C17.871 4.72745 17.8751 4.62641 17.8528 4.53007C17.8304 4.43373 17.7825 4.34609 17.7146 4.27736L16.5396 3.03625C16.4978 2.99065 16.4464 2.95588 16.3897 2.93464C16.3329 2.91341 16.2722 2.9063 16.2124 2.91387H16.0229L17.8409 4.82142Z" fill="#0A9EF2"/>
</svg>
