<svg width="22" height="18" viewBox="0 0 22 18" fill="none" xmlns="http://www.w3.org/2000/svg">
<path d="M21.407 9.22136C18.5287 5.29644 14.7346 3.33398 10.9406 3.33398C7.14647 3.33398 3.35239 5.29644 0.474121 9.22136C6.23066 17.0712 15.6505 17.0712 21.407 9.22136ZM7.53897 5.95059C7.21189 6.53933 7.01564 7.19348 7.01564 7.91305C7.01564 10.0718 8.78186 11.838 10.9406 11.838C13.0993 11.838 14.8655 10.0718 14.8655 7.91305C14.8655 7.19348 14.6692 6.53933 14.3422 5.95059C15.9775 6.60475 17.5475 7.7168 18.9212 9.22136C16.6317 11.7725 13.8842 13.1463 11.006 13.1463C8.1277 13.1463 5.31485 11.7725 3.02532 9.22136C4.33362 7.7168 5.90359 6.60475 7.53897 5.95059Z" fill="#0A9EF2"/>
<path d="M16.8691 17.77L4.09302 1.72438L6.05172 0.164794L18.8278 16.2104L16.8691 17.77Z" fill="white"/>
<path d="M16.2886 17.9116L3.51246 1.86598L5.01192 0.672049L17.788 16.7177L16.2886 17.9116Z" fill="#0A9EF2"/>
</svg>
