<svg width="22" height="13" viewBox="0 0 22 13" fill="none" xmlns="http://www.w3.org/2000/svg">
<path d="M21.6341 6.23779C18.7029 2.24072 14.8391 0.242188 10.9753 0.242188C7.11143 0.242188 3.24759 2.24072 0.316406 6.23779C6.17878 14.2319 15.7717 14.2319 21.6341 6.23779ZM7.51113 2.9069C7.17804 3.50646 6.97819 4.17264 6.97819 4.90544C6.97819 7.10383 8.77687 8.90251 10.9753 8.90251C13.1736 8.90251 14.9723 7.10383 14.9723 4.90544C14.9723 4.17264 14.7725 3.50646 14.4394 2.9069C16.1048 3.57308 17.7037 4.70558 19.1026 6.23779C16.771 8.83589 13.9731 10.2349 11.0419 10.2349C8.11069 10.2349 5.24613 8.83589 2.9145 6.23779C4.24686 4.70558 5.84569 3.57308 7.51113 2.9069Z" fill="#0A9EF2"/>
</svg>
