<svg width="20" height="15" viewBox="0 0 20 15" fill="none" xmlns="http://www.w3.org/2000/svg">
<path d="M15.8835 7.5C15.8415 7.5 15.8019 7.5108 15.7611 7.512C15.8428 7.11322 15.8838 6.70719 15.8835 6.30013C15.8835 2.98729 13.197 0.300781 9.88411 0.300781C6.57127 0.300781 3.88477 2.98729 3.88477 6.30013C3.88477 6.32053 3.89076 6.33973 3.89076 6.36012C1.85579 6.65049 0.285156 8.3843 0.285156 10.4997C0.285156 11.6135 0.727607 12.6816 1.51517 13.4692C2.30274 14.2568 3.37091 14.6992 4.4847 14.6992H7.49397C7.65028 14.6992 7.80506 14.6684 7.94947 14.6086C8.09388 14.5488 8.2251 14.4611 8.33562 14.3506C8.44615 14.2401 8.53382 14.1089 8.59364 13.9644C8.65346 13.82 8.68424 13.6653 8.68424 13.5089V9.89974H6.13812L9.88411 5.10026L13.6301 9.89974H11.084V13.5089C11.084 14.1665 11.6167 14.6992 12.2743 14.6992H15.8835C16.3562 14.6992 16.8242 14.6061 17.261 14.4252C17.6977 14.2443 18.0945 13.9792 18.4288 13.6449C18.763 13.3107 19.0282 12.9138 19.2091 12.4771C19.39 12.0404 19.4831 11.5723 19.4831 11.0996C19.4831 10.6269 19.39 10.1588 19.2091 9.7221C19.0282 9.28537 18.763 8.88856 18.4288 8.5543C18.0945 8.22005 17.6977 7.9549 17.261 7.774C16.8242 7.59311 16.3562 7.5 15.8835 7.5Z" fill="white"/>
</svg>
