<svg width="20" height="20" viewBox="0 0 20 20" fill="none" xmlns="http://www.w3.org/2000/svg">
<path d="M10.5747 13.5071C10.1805 13.4766 10.2563 13.0952 10.3321 12.8053L10.9993 10.2881C11.1812 9.57102 10.6505 8.86923 9.92272 8.86923C9.42236 8.86923 8.96749 9.20487 8.84619 9.70833C8.75521 10.0745 7.98192 13.2783 7.96676 13.2935C7.86062 13.7512 7.72416 14.331 7.92127 14.7734C8.22452 15.4599 9.13427 15.2616 9.69529 15.0938C10.0743 14.987 10.4382 14.8192 10.787 14.6208C11.1509 14.392 11.8938 13.7512 11.8938 13.736L11.818 12.9884C11.5148 13.2325 10.9689 13.5376 10.5747 13.5071ZM10.8476 4.75004C10.0137 4.70428 9.19492 5.45183 9.1646 6.30618C9.14944 6.56554 9.22525 6.80964 9.34655 7.02323C9.86207 7.86232 11.0447 7.67925 11.6816 7.09951C12.5307 6.33669 11.9545 4.81107 10.8476 4.75004Z" fill="#A0B5BE"/>
<path d="M9.95483 0.22583C4.53853 0.22583 0.144775 4.61959 0.144775 10.0359C0.144775 15.4522 4.55451 19.8459 9.95483 19.8459C15.3711 19.8459 19.7649 15.4362 19.7649 10.0359C19.7649 4.61959 15.3711 0.22583 9.95483 0.22583ZM9.95483 17.7369C5.70487 17.7369 2.25378 14.2858 2.25378 10.0359C2.25378 5.78593 5.70487 2.33483 9.95483 2.33483C14.2048 2.33483 17.6559 5.78593 17.6559 10.0359C17.6559 14.2858 14.2048 17.7369 9.95483 17.7369Z" fill="#A0B5BE"/>
</svg>
