<svg width="20" height="20" viewBox="0 0 20 20" fill="none" xmlns="http://www.w3.org/2000/svg">
<path d="M10.6951 13.6082C10.3008 13.5777 10.3767 13.1963 10.4525 12.9064L11.1196 10.3891C11.3016 9.6721 10.7709 8.97031 10.0431 8.97031C9.54272 8.97031 9.08785 9.30594 8.96655 9.8094C8.87557 10.1756 8.10228 13.3794 8.08712 13.3946C7.98098 13.8523 7.84452 14.432 8.04163 14.8745C8.34488 15.561 9.25463 15.3627 9.81565 15.1949C10.1947 15.0881 10.5586 14.9202 10.9073 14.7219C11.2712 14.4931 12.0142 13.8523 12.0142 13.8371L11.9384 13.0895C11.6351 13.3336 11.0893 13.6387 10.6951 13.6082ZM10.968 4.85112C10.1341 4.80535 9.31528 5.55291 9.28496 6.40726C9.2698 6.66661 9.34561 6.91071 9.46691 7.1243C9.98243 7.96339 11.1651 7.78032 11.8019 7.20058C12.651 6.43777 12.0749 4.91214 10.968 4.85112Z" fill="#A0B5BE"/>
<path d="M10.0757 0.327148C4.65938 0.327148 0.265625 4.7209 0.265625 10.1372C0.265625 15.5535 4.67536 19.9473 10.0757 19.9473C15.492 19.9473 19.8857 15.5375 19.8857 10.1372C19.8857 4.7209 15.492 0.327148 10.0757 0.327148ZM10.0757 17.8383C5.82572 17.8383 2.37463 14.3872 2.37463 10.1372C2.37463 5.88725 5.82572 2.43615 10.0757 2.43615C14.3256 2.43615 17.7767 5.88725 17.7767 10.1372C17.7767 14.3872 14.3256 17.8383 10.0757 17.8383Z" fill="#A0B5BE"/>
</svg>
