<svg width="11" height="18" viewBox="0 0 11 18" fill="none" xmlns="http://www.w3.org/2000/svg">
<path fill-rule="evenodd" clip-rule="evenodd" d="M8.6518 17.3263C8.75924 17.4337 8.90491 17.494 9.0568 17.494C9.20868 17.494 9.35435 17.4337 9.4618 17.3263L10.2718 16.5163C10.3792 16.4089 10.4395 16.2632 10.4395 16.1113C10.4395 15.9594 10.3792 15.8138 10.2718 15.7063L3.4658 8.89932L10.2718 2.09332C10.3792 1.98588 10.4395 1.8402 10.4395 1.68832C10.4395 1.53644 10.3792 1.39076 10.2718 1.28332L9.4618 0.47332C9.35435 0.365967 9.20868 0.305664 9.0568 0.305664C8.90491 0.305664 8.75924 0.365967 8.6518 0.47332L0.629797 8.49532C0.522444 8.60276 0.462142 8.74844 0.462142 8.90032C0.462142 9.05221 0.522444 9.19788 0.629797 9.30532L8.6518 17.3263Z" fill="#A0B5BE"/>
</svg>
