<svg width="22" height="22" viewBox="0 0 22 22" fill="none" xmlns="http://www.w3.org/2000/svg">
<path d="M10.7628 15.3886C13.1699 15.3886 15.1213 13.4361 15.1213 11.0276C15.1213 8.61901 13.1699 6.6665 10.7628 6.6665C8.35565 6.6665 6.4043 8.61901 6.4043 11.0276C6.4043 13.4361 8.35565 15.3886 10.7628 15.3886Z" fill="white"/>
<path d="M10.7622 0.744629C10.3419 0.744629 10 1.08652 10 1.50682V4.68024C10 5.10053 10.3419 5.44243 10.7622 5.44243C11.1825 5.44243 11.5244 5.10053 11.5244 4.68024V1.50682C11.5244 1.08652 11.1825 0.744629 10.7622 0.744629Z" fill="white"/>
<path d="M4.5709 3.75613C4.274 3.45922 3.79008 3.45922 3.49253 3.75613C3.34858 3.90008 3.26953 4.09159 3.26953 4.29531C3.26953 4.49903 3.34858 4.69054 3.49253 4.8345L5.73668 7.07864C5.88063 7.2226 6.07214 7.30165 6.27586 7.30165C6.47959 7.30165 6.6711 7.2226 6.81505 7.07864C7.11196 6.78174 7.11196 6.29782 6.81505 6.00027L4.5709 3.75613Z" fill="white"/>
<path d="M5.17827 11.0271C5.17827 10.6068 4.83637 10.2649 4.41608 10.2649H1.24266C0.82236 10.2649 0.480469 10.6068 0.480469 11.0271C0.480469 11.4474 0.82236 11.7893 1.24266 11.7893H4.41608C4.83637 11.7893 5.17827 11.4474 5.17827 11.0271Z" fill="white"/>
<path d="M5.73668 14.9755L3.49253 17.219C3.34858 17.363 3.26953 17.5545 3.26953 17.7582C3.26953 17.9619 3.34858 18.1534 3.49253 18.2974C3.63649 18.4414 3.828 18.5204 4.03172 18.5204C4.23544 18.5204 4.42695 18.4414 4.5709 18.2974L6.81505 16.0533C7.11196 15.7563 7.11196 15.2724 6.81505 14.9749C6.5175 14.678 6.03423 14.678 5.73668 14.9749V14.9755Z" fill="white"/>
<path d="M10.7622 16.6111C10.3419 16.6111 10 16.953 10 17.3733V20.5467C10 20.967 10.3419 21.3089 10.7622 21.3089C11.1825 21.3089 11.5244 20.967 11.5244 20.5467V17.3733C11.5244 16.953 11.1825 16.6111 10.7622 16.6111Z" fill="white"/>
<path d="M15.7893 14.9756C15.4918 14.6781 15.0085 14.6787 14.711 14.9756C14.4141 15.2725 14.4141 15.7564 14.711 16.054L16.9551 18.2981C17.0991 18.4421 17.2906 18.5211 17.4943 18.5211C17.698 18.5211 17.8895 18.4421 18.0335 18.2981C18.1774 18.1542 18.2565 17.9627 18.2565 17.7589C18.2565 17.5552 18.1774 17.3637 18.0335 17.2198L15.7893 14.9756Z" fill="white"/>
<path d="M20.2833 10.2649H17.1098C16.6895 10.2649 16.3477 10.6068 16.3477 11.0271C16.3477 11.4474 16.6895 11.7893 17.1098 11.7893H20.2833C20.7036 11.7893 21.0455 11.4474 21.0455 11.0271C21.0455 10.6068 20.7036 10.2649 20.2833 10.2649Z" fill="white"/>
<path d="M15.2505 7.30165C15.4542 7.30165 15.6457 7.2226 15.7897 7.07864L18.0338 4.8345C18.1778 4.69054 18.2568 4.49903 18.2568 4.29531C18.2568 4.09159 18.1778 3.90008 18.0338 3.75613C17.7363 3.45922 17.253 3.45922 16.9554 3.75613L14.7113 6.00027C14.5673 6.14423 14.4883 6.33574 14.4883 6.53946C14.4883 6.74318 14.5673 6.93469 14.7113 7.07864C14.8552 7.2226 15.0467 7.30165 15.2505 7.30165Z" fill="white"/>
</svg>
