<svg width="20" height="21" viewBox="0 0 20 21" fill="none" xmlns="http://www.w3.org/2000/svg">
<path d="M10.59 11.4305L8.29 13.7205C8.19627 13.8135 8.12188 13.9241 8.07111 14.0459C8.02034 14.1678 7.9942 14.2985 7.9942 14.4305C7.9942 14.5625 8.02034 14.6932 8.07111 14.8151C8.12188 14.937 8.19627 15.0476 8.29 15.1405C8.38296 15.2342 8.49356 15.3086 8.61542 15.3594C8.73728 15.4102 8.86799 15.4363 9 15.4363C9.13201 15.4363 9.26272 15.4102 9.38458 15.3594C9.50644 15.3086 9.61704 15.2342 9.71 15.1405L13.71 11.1405C13.801 11.0454 13.8724 10.9333 13.92 10.8105C14.02 10.5671 14.02 10.294 13.92 10.0505C13.8724 9.92777 13.801 9.81562 13.71 9.72052L9.71 5.72052C9.61676 5.62728 9.50607 5.55332 9.38425 5.50286C9.26243 5.4524 9.13186 5.42643 9 5.42643C8.86814 5.42643 8.73757 5.4524 8.61575 5.50286C8.49393 5.55332 8.38324 5.62728 8.29 5.72052C8.19676 5.81376 8.1228 5.92445 8.07234 6.04627C8.02188 6.16809 7.99591 6.29866 7.99591 6.43052C7.99591 6.56238 8.02188 6.69295 8.07234 6.81477C8.1228 6.93659 8.19676 7.04728 8.29 7.14052L10.59 9.43052H1C0.734784 9.43052 0.48043 9.53588 0.292893 9.72341C0.105357 9.91095 0 10.1653 0 10.4305C0 10.6957 0.105357 10.9501 0.292893 11.1376C0.48043 11.3252 0.734784 11.4305 1 11.4305H10.59ZM10 0.43052C8.13109 0.422176 6.29724 0.937732 4.70647 1.91871C3.11569 2.89969 1.83165 4.30683 1 5.98052C0.880653 6.21921 0.861015 6.49554 0.945406 6.74872C1.0298 7.00189 1.21131 7.21117 1.45 7.33052C1.68869 7.44987 1.96502 7.46951 2.2182 7.38511C2.47137 7.30072 2.68065 7.11921 2.8 6.88052C3.43219 5.60384 4.39383 4.51914 5.58555 3.73851C6.77727 2.95788 8.15582 2.50964 9.57876 2.44011C11.0017 2.37059 12.4174 2.6823 13.6795 3.34303C14.9417 4.00376 16.0045 4.98955 16.7581 6.19852C17.5118 7.40748 17.9289 8.79577 17.9664 10.2199C18.0039 11.644 17.6605 13.0524 16.9715 14.2993C16.2826 15.5463 15.2731 16.5867 14.0475 17.3129C12.8219 18.0392 11.4246 18.425 10 18.4305C8.50888 18.437 7.04615 18.0229 5.77969 17.2358C4.51323 16.4487 3.49435 15.3204 2.84 13.9805C2.72065 13.7418 2.51137 13.5603 2.2582 13.4759C2.00502 13.3915 1.72869 13.4112 1.49 13.5305C1.25131 13.6499 1.0698 13.8591 0.985406 14.1123C0.901015 14.3655 0.920653 14.6418 1.04 14.8805C1.83283 16.476 3.03752 17.8308 4.52947 18.8046C6.02142 19.7784 7.74645 20.3359 9.52612 20.4195C11.3058 20.5031 13.0755 20.1097 14.6521 19.28C16.2288 18.4503 17.5552 17.2145 18.4941 15.7003C19.433 14.1862 19.9503 12.4487 19.9925 10.6675C20.0347 8.88639 19.6003 7.12631 18.7342 5.56935C17.8682 4.01239 16.6018 2.71509 15.0663 1.81163C13.5307 0.908165 11.7816 0.431356 10 0.43052Z" fill="#A0B5BE"/>
</svg>
