<svg width="18" height="20" viewBox="0 0 18 20" fill="none" xmlns="http://www.w3.org/2000/svg">
<path fill-rule="evenodd" clip-rule="evenodd" d="M0.999108 14.0173C0.999108 14.1747 1.06166 14.3257 1.173 14.4371C1.28434 14.5484 1.43535 14.611 1.59281 14.611H15.5959L11.8591 18.3465C11.7476 18.458 11.685 18.6092 11.685 18.7669C11.685 18.9245 11.7476 19.0757 11.8591 19.1872C11.9706 19.2987 12.1218 19.3613 12.2795 19.3613C12.4371 19.3613 12.5883 19.2987 12.6998 19.1872L17.4494 14.4376C17.5047 14.3824 17.5486 14.3169 17.5785 14.2448C17.6084 14.1727 17.6239 14.0953 17.6239 14.0173C17.6239 13.9392 17.6084 13.8618 17.5785 13.7897C17.5486 13.7176 17.5047 13.6521 17.4494 13.5969L12.6998 8.84728C12.5883 8.7358 12.4371 8.67317 12.2795 8.67317C12.1218 8.67317 11.9706 8.7358 11.8591 8.84728C11.7476 8.95877 11.685 9.10997 11.685 9.26763C11.685 9.42528 11.7476 9.57649 11.8591 9.68797L15.5959 13.4235H1.59281C1.43535 13.4235 1.28434 13.4861 1.173 13.5974C1.06166 13.7088 0.999108 13.8598 0.999108 14.0173ZM17.6228 5.70541C17.6228 5.86287 17.5602 6.01388 17.4489 6.12522C17.3376 6.23656 17.1866 6.29911 17.0291 6.29911H3.02601L6.76278 10.0347C6.81798 10.0899 6.86177 10.1554 6.89164 10.2275C6.92151 10.2997 6.93689 10.377 6.93689 10.455C6.93689 10.5331 6.92151 10.6104 6.89164 10.6825C6.86177 10.7546 6.81798 10.8202 6.76278 10.8754C6.70758 10.9306 6.64205 10.9744 6.56992 11.0042C6.4978 11.0341 6.4205 11.0495 6.34244 11.0495C6.26437 11.0495 6.18707 11.0341 6.11495 11.0042C6.04283 10.9744 5.97729 10.9306 5.92209 10.8754L1.17247 6.12575C1.11718 6.0706 1.07331 6.00508 1.04338 5.93295C1.01345 5.86082 0.998047 5.7835 0.998047 5.70541C0.998047 5.62731 1.01345 5.54999 1.04338 5.47786C1.07331 5.40573 1.11718 5.34021 1.17247 5.28506L5.92209 0.535439C6.03358 0.423958 6.18478 0.361328 6.34244 0.361328C6.50009 0.361328 6.6513 0.423958 6.76278 0.535439C6.87426 0.646921 6.93689 0.798123 6.93689 0.955781C6.93689 1.11344 6.87426 1.26464 6.76278 1.37612L3.02601 5.1117H17.0291C17.1866 5.1117 17.3376 5.17425 17.4489 5.2856C17.5602 5.39694 17.6228 5.54795 17.6228 5.70541Z" fill="#A0B5BE"/>
</svg>
