<svg width="5" height="18" viewBox="0 0 5 18" fill="none" xmlns="http://www.w3.org/2000/svg">
<path d="M2.5119 7.20299C1.57462 7.20299 0.814806 7.9628 0.814806 8.90008C0.814806 9.83736 1.57462 10.5972 2.5119 10.5972C3.44917 10.5972 4.20898 9.83736 4.20898 8.90008C4.20898 7.9628 3.44917 7.20299 2.5119 7.20299Z" fill="#4F6D7A"/>
<path d="M2.5119 13.9911C1.57462 13.9911 0.814806 14.7509 0.814806 15.6882C0.814806 16.6254 1.57462 17.3853 2.5119 17.3853C3.44917 17.3853 4.20898 16.6254 4.20898 15.6882C4.20898 14.7509 3.44917 13.9911 2.5119 13.9911Z" fill="#4F6D7A"/>
<path d="M2.5119 0.414903C1.57462 0.414903 0.814806 1.17472 0.814806 2.11199C0.814806 3.04927 1.57462 3.80908 2.5119 3.80908C3.44917 3.80908 4.20898 3.04927 4.20898 2.11199C4.20898 1.17472 3.44917 0.414904 2.5119 0.414903Z" fill="#4F6D7A"/>
</svg>
