<svg width="18" height="22" viewBox="0 0 18 22" fill="none" xmlns="http://www.w3.org/2000/svg">
<path d="M8.72002 12.1511C8.39432 12.1473 8.07527 12.2434 7.80581 12.4264C7.53636 12.6094 7.32944 12.8705 7.2129 13.1747C7.09636 13.4789 7.0758 13.8114 7.15399 14.1276C7.23218 14.4438 7.40536 14.7285 7.65022 14.9433V16.4303C7.65022 16.714 7.76293 16.9861 7.96356 17.1868C8.16418 17.3874 8.43629 17.5001 8.72002 17.5001C9.00375 17.5001 9.27586 17.3874 9.47648 17.1868C9.67711 16.9861 9.78982 16.714 9.78982 16.4303V14.9433C10.0347 14.7285 10.2079 14.4438 10.286 14.1276C10.3642 13.8114 10.3437 13.4789 10.2271 13.1747C10.1106 12.8705 9.90368 12.6094 9.63422 12.4264C9.36477 12.2434 9.04572 12.1473 8.72002 12.1511ZM14.069 7.8719V5.7323C14.069 4.31366 13.5055 2.95312 12.5023 1.94999C11.4992 0.946854 10.1387 0.383301 8.72002 0.383301C7.30138 0.383301 5.94084 0.946854 4.93771 1.94999C3.93457 2.95312 3.37102 4.31366 3.37102 5.7323V7.8719C2.51983 7.8719 1.70351 8.21003 1.10163 8.81191C0.499753 9.41379 0.161621 10.2301 0.161621 11.0813V18.5699C0.161621 19.4211 0.499753 20.2374 1.10163 20.8393C1.70351 21.4412 2.51983 21.7793 3.37102 21.7793H14.069C14.9202 21.7793 15.7365 21.4412 16.3384 20.8393C16.9403 20.2374 17.2784 19.4211 17.2784 18.5699V11.0813C17.2784 10.2301 16.9403 9.41379 16.3384 8.81191C15.7365 8.21003 14.9202 7.8719 14.069 7.8719ZM5.51062 5.7323C5.51062 4.88111 5.84875 4.06479 6.45063 3.46291C7.05251 2.86103 7.86883 2.5229 8.72002 2.5229C9.57121 2.5229 10.3875 2.86103 10.9894 3.46291C11.5913 4.06479 11.9294 4.88111 11.9294 5.7323V7.8719H5.51062V5.7323ZM15.1388 18.5699C15.1388 18.8536 15.0261 19.1257 14.8255 19.3264C14.6249 19.527 14.3527 19.6397 14.069 19.6397H3.37102C3.08729 19.6397 2.81518 19.527 2.61456 19.3264C2.41393 19.1257 2.30122 18.8536 2.30122 18.5699V11.0813C2.30122 10.7976 2.41393 10.5255 2.61456 10.3248C2.81518 10.1242 3.08729 10.0115 3.37102 10.0115H14.069C14.3527 10.0115 14.6249 10.1242 14.8255 10.3248C15.0261 10.5255 15.1388 10.7976 15.1388 11.0813V18.5699Z" fill="#31393C"/>
</svg>
