<svg width="15" height="16" viewBox="0 0 15 16" fill="none" xmlns="http://www.w3.org/2000/svg">
<path d="M7.86087 5.53473C7.70886 5.52538 7.55662 5.54852 7.41338 5.60277C7.27013 5.65701 7.13888 5.74122 7.02755 5.8503C6.91622 5.95939 6.82714 6.09106 6.76571 6.23736C6.70427 6.38366 6.67177 6.54153 6.67016 6.7014C6.67016 6.83394 6.62001 6.96105 6.53075 7.05477C6.44149 7.14849 6.32043 7.20115 6.1942 7.20115C6.06797 7.20115 5.9469 7.14849 5.85765 7.05477C5.76839 6.96105 5.71826 6.83394 5.71826 6.7014C5.71985 6.4102 5.77696 6.12227 5.88625 5.85462C5.99553 5.58696 6.15479 5.34501 6.35458 5.14302C6.55436 4.94103 6.79063 4.78312 7.04949 4.67857C7.30835 4.57403 7.58454 4.52498 7.86174 4.53433C8.3918 4.53741 8.90452 4.73292 9.31294 5.08769C9.52522 5.26506 9.69741 5.48964 9.81711 5.74527C9.93682 6.00089 10.001 6.2812 10.0052 6.56602C9.99819 6.93512 9.89578 7.29528 9.70891 7.608C9.52205 7.92072 9.25777 8.17424 8.94431 8.34146C8.82835 8.41597 8.71413 8.4814 8.61721 8.53683H8.61201C8.51249 8.59407 8.43894 8.63678 8.37404 8.67766L8.33855 8.70129V8.96842C8.33855 9.10096 8.28842 9.22807 8.19916 9.32179C8.10991 9.41551 7.98884 9.46816 7.86261 9.46816C7.73638 9.46816 7.61532 9.41551 7.52606 9.32179C7.4368 9.22807 7.38665 9.10096 7.38665 8.96842V8.57225C7.38906 8.38413 7.45927 8.20395 7.5831 8.06797C7.66869 7.97442 7.76589 7.89342 7.87212 7.82719C7.95865 7.77085 8.05645 7.71451 8.14558 7.66363L8.16288 7.65365C8.26066 7.59731 8.355 7.54278 8.44759 7.48372C8.62116 7.40544 8.77013 7.27724 8.87731 7.1139C8.98449 6.95056 9.04552 6.75875 9.05335 6.56057C9.0494 6.42273 9.01627 6.28754 8.9564 6.16481C8.89653 6.04207 8.8114 5.93485 8.70718 5.85093C8.47002 5.646 8.1732 5.53248 7.86607 5.52927L7.86087 5.53473Z" fill="white"/>
<path d="M7.1936 10.7367C7.1936 10.8751 7.23268 11.0104 7.30589 11.1254C7.37911 11.2405 7.48319 11.3302 7.60494 11.3831C7.7267 11.4361 7.86067 11.4499 7.98993 11.4229C8.11918 11.396 8.23791 11.3293 8.3311 11.2315C8.42429 11.1336 8.48774 11.009 8.51345 10.8732C8.53916 10.7375 8.52596 10.5969 8.47553 10.469C8.4251 10.3412 8.33969 10.2319 8.23011 10.155C8.12054 10.0781 7.9917 10.0371 7.85992 10.0371C7.68327 10.0373 7.51394 10.1111 7.38903 10.2423C7.26412 10.3734 7.19383 10.5513 7.1936 10.7367Z" fill="white"/>
<path fill-rule="evenodd" clip-rule="evenodd" d="M7.86084 15.3151C9.23005 15.3151 10.5685 14.8888 11.707 14.09C12.8454 13.2913 13.7327 12.1561 14.2567 10.8278C14.7807 9.49959 14.9178 8.03803 14.6507 6.62799C14.3835 5.21794 13.7242 3.92273 12.756 2.90614C11.7879 1.88956 10.5543 1.19725 9.21143 0.916775C7.86852 0.636299 6.47657 0.780249 5.21158 1.33042C3.9466 1.88059 2.86539 2.81228 2.10469 4.00766C1.344 5.20304 0.937988 6.60843 0.937988 8.0461C0.937988 9.97395 1.66735 11.8228 2.96564 13.186C4.26393 14.5493 6.02478 15.3151 7.86084 15.3151ZM7.86084 14.1039C9.0019 14.1039 10.1173 13.7486 11.0661 13.083C12.0149 12.4173 12.7543 11.4712 13.191 10.3643C13.6277 9.2574 13.7419 8.03938 13.5193 6.86428C13.2967 5.68918 12.7472 4.60979 11.9404 3.76259C11.1335 2.91539 10.1055 2.33844 8.98639 2.1047C7.86724 1.87096 6.70722 1.99092 5.65302 2.44942C4.59881 2.90792 3.69775 3.68436 3.06381 4.68056C2.42987 5.67676 2.0915 6.84798 2.0915 8.0461C2.0915 9.65272 2.69935 11.1935 3.78131 12.3296C4.86327 13.4657 6.33072 14.1039 7.86084 14.1039Z" fill="white"/>
</svg>
