<svg width="11" height="18" viewBox="0 0 11 18" fill="none" xmlns="http://www.w3.org/2000/svg">
<path fill-rule="evenodd" clip-rule="evenodd" d="M2.4432 17.3263C2.33576 17.4337 2.19009 17.494 2.0382 17.494C1.88632 17.494 1.74065 17.4337 1.6332 17.3263L0.823204 16.5163C0.715851 16.4089 0.655548 16.2632 0.655548 16.1113C0.655548 15.9594 0.715851 15.8138 0.823204 15.7063L7.6312 8.89932L0.822204 2.09332C0.71485 1.98588 0.654548 1.8402 0.654548 1.68832C0.654548 1.53644 0.71485 1.39076 0.822204 1.28332L1.6312 0.47332C1.73865 0.365967 1.88432 0.305664 2.0362 0.305664C2.18809 0.305664 2.33376 0.365967 2.4412 0.47332L10.4632 8.49532C10.5706 8.60276 10.6309 8.74844 10.6309 8.90032C10.6309 9.05221 10.5706 9.19788 10.4632 9.30532L2.4432 17.3263Z" fill="#A0B5BE"/>
</svg>
