<svg width="14" height="14" viewBox="0 0 14 14" fill="none" xmlns="http://www.w3.org/2000/svg">
<path d="M5.76286 11.5102C6.9731 11.5092 8.14827 11.0942 9.10146 10.3312L12.099 13.3992C12.1603 13.4725 12.2358 13.532 12.3206 13.574C12.4055 13.616 12.498 13.6396 12.5922 13.6434C12.6864 13.6471 12.7804 13.6308 12.8682 13.5957C12.9559 13.5605 13.0357 13.5071 13.1024 13.4389C13.169 13.3706 13.2212 13.2891 13.2556 13.1992C13.29 13.1094 13.3059 13.0133 13.3022 12.9169C13.2986 12.8205 13.2755 12.7259 13.2344 12.639C13.1934 12.5522 13.1352 12.475 13.0636 12.4122L10.0641 9.3462C10.8179 8.34957 11.2195 7.12112 11.2035 5.86105C11.1876 4.60099 10.7551 3.38358 9.97639 2.40723C9.19772 1.43088 8.11883 0.753138 6.91553 0.48445C5.71223 0.215761 4.45547 0.371966 3.35004 0.92761C2.24461 1.48325 1.35568 2.40558 0.828116 3.54429C0.30055 4.68299 0.165446 5.97095 0.444821 7.19827C0.724196 8.42559 1.40158 9.51993 2.36659 10.3029C3.3316 11.086 4.52734 11.5115 5.75895 11.5102H5.76286ZM5.76286 1.7392C6.57257 1.73841 7.36431 1.98336 8.03793 2.44306C8.71155 2.90277 9.23679 3.55657 9.54718 4.32175C9.85758 5.08694 9.93919 5.92913 9.7817 6.74179C9.62421 7.55444 9.23469 8.30105 8.66241 8.88715C8.09014 9.47325 7.36083 9.87252 6.56673 10.0344C5.77264 10.1964 4.94946 10.1137 4.20131 9.79679C3.45317 9.47993 2.81368 8.94315 2.36375 8.25435C1.91382 7.56555 1.67367 6.75568 1.67367 5.9272C1.67341 4.817 2.10399 3.75211 2.87078 2.96661C3.63757 2.1811 4.67781 1.74026 5.76286 1.7392Z" fill="#4F6D7A"/>
</svg>
