<svg width="14" height="9" viewBox="0 0 14 9" fill="none" xmlns="http://www.w3.org/2000/svg">
<path fill-rule="evenodd" clip-rule="evenodd" d="M13.6114 2.04088C13.6934 1.9588 13.7395 1.84753 13.7395 1.7315C13.7395 1.61548 13.6934 1.5042 13.6114 1.42212L12.9927 0.803365C12.9106 0.721358 12.7993 0.675293 12.6833 0.675293C12.5673 0.675293 12.456 0.721358 12.3739 0.803365L7.17406 6.00246L1.97496 0.803365C1.89289 0.721358 1.78161 0.675293 1.66558 0.675293C1.54956 0.675293 1.43828 0.721358 1.3562 0.803365L0.737447 1.42212C0.65544 1.5042 0.609375 1.61548 0.609375 1.7315C0.609375 1.84753 0.65544 1.9588 0.737447 2.04088L6.86544 8.16888C6.94752 8.25088 7.0588 8.29695 7.17482 8.29695C7.29085 8.29695 7.40212 8.25088 7.4842 8.16888L13.6114 2.04088Z" fill="#A0B5BE"/>
</svg>
