<svg width="25" height="17" viewBox="0 0 25 17" fill="none" xmlns="http://www.w3.org/2000/svg">
<path d="M21.9791 0.595215H2.34628C1.4427 0.595215 0.710205 1.32771 0.710205 2.23129V6.59414C0.710205 7.49772 1.4427 8.23022 2.34628 8.23022H21.9791C22.8827 8.23022 23.6152 7.49772 23.6152 6.59414V2.23129C23.6152 1.32771 22.8827 0.595215 21.9791 0.595215Z" stroke="#A0B5BE" stroke-linecap="round" stroke-linejoin="round"/>
<path d="M21.9791 8.23047H2.34628C1.4427 8.23047 0.710205 8.96296 0.710205 9.86654V14.2294C0.710205 15.133 1.4427 15.8655 2.34628 15.8655H21.9791C22.8827 15.8655 23.6152 15.133 23.6152 14.2294V9.86654C23.6152 8.96296 22.8827 8.23047 21.9791 8.23047Z" stroke="#A0B5BE" stroke-linecap="round" stroke-linejoin="round"/>
<path d="M3.98242 2.77661V6.04875M6.16385 2.77661V6.04875M8.34528 2.77661V6.04875" stroke="#A0B5BE" stroke-linecap="round" stroke-linejoin="round"/>
<path d="M19.7976 4.95815C20.0987 4.95815 20.3429 4.71398 20.3429 4.41279C20.3429 4.1116 20.0987 3.86743 19.7976 3.86743C19.4964 3.86743 19.2522 4.1116 19.2522 4.41279C19.2522 4.71398 19.4964 4.95815 19.7976 4.95815Z" stroke="#A0B5BE" stroke-linecap="round" stroke-linejoin="round"/>
<path d="M16.5256 4.95815C16.8268 4.95815 17.0709 4.71398 17.0709 4.41279C17.0709 4.1116 16.8268 3.86743 16.5256 3.86743C16.2244 3.86743 15.9802 4.1116 15.9802 4.41279C15.9802 4.71398 16.2244 4.95815 16.5256 4.95815Z" stroke="#A0B5BE" stroke-linecap="round" stroke-linejoin="round"/>
<path d="M3.98242 10.4116V13.6838M6.16385 10.4116V13.6838M8.34528 10.4116V13.6838" stroke="#A0B5BE" stroke-linecap="round" stroke-linejoin="round"/>
<path d="M19.7976 12.5934C20.0987 12.5934 20.3429 12.3492 20.3429 12.048C20.3429 11.7469 20.0987 11.5027 19.7976 11.5027C19.4964 11.5027 19.2522 11.7469 19.2522 12.048C19.2522 12.3492 19.4964 12.5934 19.7976 12.5934Z" stroke="#A0B5BE" stroke-linecap="round" stroke-linejoin="round"/>
<path d="M16.5256 12.5934C16.8268 12.5934 17.0709 12.3492 17.0709 12.048C17.0709 11.7469 16.8268 11.5027 16.5256 11.5027C16.2244 11.5027 15.9802 11.7469 15.9802 12.048C15.9802 12.3492 16.2244 12.5934 16.5256 12.5934Z" stroke="#A0B5BE" stroke-linecap="round" stroke-linejoin="round"/>
</svg>
