<svg width="20" height="27" viewBox="0 0 20 27" fill="none" xmlns="http://www.w3.org/2000/svg">
<path d="M15.3778 5.22414C15.7876 5.22414 16.1199 4.89265 16.1199 4.4838C16.1199 4.07495 15.7876 3.74346 15.3778 3.74346C14.9681 3.74346 14.6358 4.07495 14.6358 4.4838C14.6358 4.89265 14.9681 5.22414 15.3778 5.22414ZM4.69279 5.07607H8.25448C8.5823 5.07607 8.84809 4.81088 8.84809 4.4838C8.84809 4.15672 8.5823 3.89153 8.25448 3.89153H4.69279C4.36497 3.89153 4.09918 4.15672 4.09918 4.4838C4.09918 4.81088 4.36497 5.07607 4.69279 5.07607ZM8.25448 10.9988H4.69279C4.36497 10.9988 4.09918 11.264 4.09918 11.5911C4.09918 11.9182 4.36497 12.1833 4.69279 12.1833H8.25448C8.5823 12.1833 8.84809 11.9182 8.84809 11.5911C8.84809 11.264 8.5823 10.9988 8.25448 10.9988ZM19.2339 22.8443H13.0034C12.9826 22.8443 12.965 22.8539 12.9448 22.856C12.7116 21.6865 11.7893 20.7663 10.6171 20.5337C10.6192 20.5135 10.6289 20.4959 10.6289 20.4752V15.737H16.5651C18.2037 15.7355 19.5316 14.4105 19.5331 12.7756V10.4065C19.5322 9.43317 19.0548 8.57715 18.3279 8.03744C19.0548 7.49773 19.5322 6.64171 19.5331 5.66835V3.29925C19.5316 1.66436 18.2037 0.339409 16.5651 0.337891H3.50557C1.86697 0.339409 0.539022 1.66436 0.537501 3.29925V5.66835C0.538443 6.64171 1.01583 7.49773 1.7427 8.03744C1.01583 8.57715 0.538443 9.43317 0.537501 10.4065V12.7756C0.539022 14.4105 1.86697 15.7355 3.50557 15.737H9.4417V20.4752C9.4417 20.4957 9.45141 20.5137 9.45344 20.5337C8.28129 20.7663 7.35898 21.6866 7.12587 22.856C7.10565 22.8539 7.08805 22.8443 7.06725 22.8443H0.836778C0.508957 22.8443 0.243164 23.1094 0.243164 23.4365C0.243164 23.7636 0.508957 24.0288 0.836778 24.0288H7.06725C7.08805 24.0288 7.10565 24.0191 7.12587 24.017C7.39645 25.3744 8.59534 26.3979 10.0353 26.3979C11.4746 26.3966 12.6728 25.3736 12.9443 24.0169C12.9647 24.019 12.9824 24.0288 13.0034 24.0288H19.2339C19.5617 24.0288 19.8275 23.7636 19.8275 23.4365C19.8275 23.1094 19.5617 22.8443 19.2339 22.8443ZM1.72473 5.66835V3.29925C1.72581 2.31837 2.52247 1.52352 3.50557 1.52244H16.5651C17.5482 1.52352 18.3448 2.31837 18.3459 3.29925V5.66835C18.3448 6.64922 17.5482 7.44408 16.5651 7.44516H3.50557C2.52247 7.44408 1.72581 6.64922 1.72473 5.66835ZM3.50557 14.5524C2.52247 14.5514 1.72581 13.7565 1.72473 12.7756V10.4065C1.72581 9.42565 2.52247 8.63079 3.50557 8.62971H16.5651C17.5482 8.63079 18.3448 9.42565 18.3459 10.4065V12.7756C18.3448 13.7565 17.5482 14.5514 16.5651 14.5524H3.50557ZM10.0353 25.2133C9.05178 25.2133 8.25448 24.4178 8.25448 23.4365C8.25448 22.4552 9.05178 21.6597 10.0353 21.6597C11.0184 21.6608 11.8151 22.4556 11.8162 23.4365C11.8162 24.4178 11.0189 25.2133 10.0353 25.2133ZM15.3778 10.8507C14.9681 10.8507 14.6358 11.1822 14.6358 11.5911C14.6358 11.9999 14.9681 12.3314 15.3778 12.3314C15.7876 12.3314 16.1199 11.9999 16.1199 11.5911C16.1199 11.1822 15.7876 10.8507 15.3778 10.8507Z" fill="#A0B5BE"/>
</svg>
