<svg width="18" height="21" viewBox="0 0 18 21" fill="none" xmlns="http://www.w3.org/2000/svg">
<path d="M14.9279 16.4434C15.0693 16.4434 15.2107 16.4496 15.3521 16.4352C15.68 16.4024 15.9833 16.3225 16.2723 16.1627C16.7887 15.8778 17.1863 15.3655 17.3359 14.7958C17.4506 14.3572 17.4097 13.8715 17.4097 13.4227V10.0679C17.4097 9.64984 17.3051 9.22973 17.0818 8.87314C16.7703 8.3772 16.26 7.99192 15.6821 7.87101C15.2476 7.78084 14.7107 7.77674 14.2864 7.912C13.727 8.09029 13.2208 8.48991 12.9605 9.02479C12.7945 9.36498 12.7166 9.71747 12.7166 10.0966V14.1195C12.7166 14.4043 12.7412 14.6933 12.8437 14.9618C13.0548 15.511 13.4503 15.9926 13.9975 16.2303C14.2946 16.3635 14.5979 16.4393 14.9279 16.4434C15.2496 16.4455 15.557 16.1586 15.5427 15.8286C15.5284 15.4925 15.2722 15.2159 14.9279 15.2138C14.8521 15.2138 14.7783 15.2077 14.7025 15.1974C14.7578 15.2056 14.8111 15.2118 14.8664 15.22C14.7291 15.1995 14.5979 15.1626 14.4709 15.1093L14.6184 15.1708C14.5283 15.1319 14.4401 15.0847 14.3582 15.0314C14.3541 15.0294 14.2926 14.9904 14.2926 14.9843C14.2926 14.9863 14.4279 15.097 14.3438 15.0232C14.3069 14.9904 14.2701 14.9597 14.2352 14.9249C14.2045 14.8941 14.1737 14.8613 14.145 14.8265C14.1102 14.7855 14.0774 14.7138 14.1737 14.8675C14.1594 14.8449 14.143 14.8244 14.1266 14.8019C14.0713 14.7199 14.0262 14.6318 13.9872 14.5416L14.0487 14.6892C13.9954 14.5621 13.9586 14.431 13.9381 14.2937C13.9463 14.349 13.9524 14.4023 13.9606 14.4576C13.936 14.267 13.9442 14.0703 13.9442 13.8777V10.488C13.9442 10.2626 13.9299 10.031 13.9606 9.80764C13.9524 9.86298 13.9463 9.91626 13.9381 9.97159C13.9586 9.83428 13.9954 9.70313 14.0487 9.57607L13.9872 9.72362C14.0262 9.63345 14.0733 9.54533 14.1266 9.46335C14.1286 9.45925 14.1676 9.39777 14.1737 9.39777C14.1717 9.39777 14.061 9.53303 14.1348 9.44901C14.1676 9.41212 14.1983 9.37523 14.2332 9.34039C14.2639 9.30965 14.2967 9.27891 14.3315 9.25022C14.3725 9.21538 14.4442 9.18259 14.2905 9.27891C14.3131 9.26457 14.3336 9.24817 14.3561 9.23178C14.4381 9.17644 14.5262 9.13136 14.6164 9.09242L14.4688 9.1539C14.5959 9.10062 14.7271 9.06373 14.8644 9.04324C14.809 9.05143 14.7557 9.05758 14.7004 9.06578C14.9299 9.03504 15.1882 9.03504 15.4197 9.06578C15.3644 9.05758 15.3111 9.05143 15.2558 9.04324C15.3931 9.06373 15.5243 9.10062 15.6513 9.1539L15.5038 9.09242C15.5939 9.13136 15.6821 9.17849 15.764 9.23178C15.7681 9.23383 15.8296 9.27276 15.8296 9.27891C15.8296 9.27686 15.6944 9.1662 15.7784 9.23997C15.8153 9.27276 15.8521 9.3035 15.887 9.33834C15.9177 9.36908 15.9485 9.40187 15.9772 9.43671C16.012 9.4777 16.0448 9.54943 15.9485 9.39572C15.9628 9.41827 15.9792 9.43876 15.9956 9.4613C16.0509 9.54328 16.096 9.6314 16.135 9.72157L16.0735 9.57402C16.1268 9.70108 16.1637 9.83224 16.1841 9.96954C16.1759 9.91421 16.1698 9.86093 16.1616 9.80559C16.1862 9.99618 16.178 10.1929 16.178 10.3856V13.7752C16.178 14.0006 16.1923 14.2322 16.1616 14.4556C16.1698 14.4002 16.1759 14.347 16.1841 14.2916C16.1637 14.4289 16.1268 14.5601 16.0735 14.6871L16.135 14.5396C16.096 14.6298 16.0489 14.7179 15.9956 14.7999C15.9936 14.804 15.9546 14.8654 15.9485 14.8654C15.9505 14.8654 16.0612 14.7302 15.9874 14.8142C15.9546 14.8511 15.9239 14.888 15.889 14.9228C15.8583 14.9536 15.8255 14.9843 15.7907 15.013C15.7497 15.0478 15.678 15.0806 15.8317 14.9843C15.8091 14.9986 15.7886 15.015 15.7661 15.0314C15.6841 15.0868 15.596 15.1319 15.5058 15.1708L15.6534 15.1093C15.5263 15.1626 15.3951 15.1995 15.2578 15.22C15.3132 15.2118 15.3665 15.2056 15.4218 15.1974C15.2578 15.22 15.0939 15.2138 14.9279 15.2138C14.6061 15.2138 14.2987 15.4966 14.3131 15.8286C14.3274 16.1606 14.5816 16.4434 14.9279 16.4434ZM2.6236 16.4434C2.76501 16.4434 2.90641 16.4496 3.04782 16.4352C3.37571 16.4024 3.67902 16.3225 3.96797 16.1627C4.48441 15.8778 4.88198 15.3655 5.03159 14.7958C5.14635 14.3572 5.10536 13.8715 5.10536 13.4227V10.0679C5.10536 9.64984 5.00085 9.22973 4.77747 8.87314C4.46597 8.3772 3.95568 7.99192 3.37776 7.87101C2.9433 7.78084 2.40637 7.77674 1.98215 7.912C1.42268 8.09029 0.916493 8.48991 0.656226 9.02479C0.490229 9.36498 0.412354 9.71747 0.412354 10.0966V14.1195C0.412354 14.4043 0.436946 14.6933 0.539413 14.9618C0.750496 15.511 1.14602 15.9926 1.6932 16.2303C1.99035 16.3635 2.29366 16.4393 2.6236 16.4434C2.94535 16.4455 3.25275 16.1586 3.23841 15.8286C3.22406 15.4925 2.96789 15.2159 2.6236 15.2138C2.54778 15.2138 2.474 15.2077 2.39817 15.1974C2.45351 15.2056 2.50679 15.2118 2.56212 15.22C2.42481 15.1995 2.29366 15.1626 2.1666 15.1093L2.31415 15.1708C2.22398 15.1319 2.13586 15.0847 2.05388 15.0314C2.04978 15.0294 1.9883 14.9904 1.9883 14.9843C1.9883 14.9863 2.12356 15.097 2.03954 15.0232C2.00265 14.9904 1.96576 14.9597 1.93092 14.9249C1.90018 14.8941 1.86944 14.8613 1.84075 14.8265C1.80591 14.7855 1.77312 14.7138 1.86944 14.8675C1.8551 14.8449 1.8387 14.8244 1.82231 14.8019C1.76697 14.7199 1.72189 14.6318 1.68295 14.5416L1.74443 14.6892C1.69115 14.5621 1.65426 14.431 1.63377 14.2937C1.64196 14.349 1.64811 14.4023 1.65631 14.4576C1.63172 14.267 1.63991 14.0703 1.63991 13.8777V10.488C1.63991 10.2626 1.62557 10.031 1.65631 9.80764C1.64811 9.86298 1.64196 9.91626 1.63377 9.97159C1.65426 9.83428 1.69115 9.70313 1.74443 9.57607L1.68295 9.72362C1.72189 9.63345 1.76902 9.54533 1.82231 9.46335C1.82436 9.45925 1.86329 9.39777 1.86944 9.39777C1.86739 9.39777 1.75673 9.53303 1.8305 9.44901C1.86329 9.41212 1.89403 9.37523 1.92887 9.34039C1.95961 9.30965 1.9924 9.27891 2.02724 9.25022C2.06823 9.21538 2.13995 9.18259 1.98625 9.27891C2.0088 9.26457 2.02929 9.24817 2.05183 9.23178C2.13381 9.17644 2.22193 9.13136 2.3121 9.09242L2.16455 9.1539C2.29161 9.10062 2.42277 9.06373 2.56007 9.04324C2.50474 9.05143 2.45146 9.05758 2.39612 9.06578C2.62565 9.03504 2.88387 9.03504 3.11545 9.06578C3.06011 9.05758 3.00683 9.05143 2.9515 9.04324C3.0888 9.06373 3.21996 9.10062 3.34702 9.1539L3.19947 9.09242C3.28964 9.13136 3.37776 9.17849 3.45974 9.23178C3.46383 9.23383 3.52531 9.27276 3.52531 9.27891C3.52531 9.27686 3.39006 9.1662 3.47408 9.23997C3.51097 9.27276 3.54786 9.3035 3.5827 9.33834C3.61344 9.36908 3.64418 9.40187 3.67287 9.43671C3.70771 9.4777 3.7405 9.54943 3.64418 9.39572C3.65852 9.41827 3.67492 9.43876 3.69131 9.4613C3.74664 9.54328 3.79173 9.6314 3.83067 9.72157L3.76919 9.57402C3.82247 9.70108 3.85936 9.83224 3.87985 9.96954C3.87166 9.91421 3.86551 9.86093 3.85731 9.80559C3.8819 9.99618 3.8737 10.1929 3.8737 10.3856V13.7752C3.8737 14.0006 3.88805 14.2322 3.85731 14.4556C3.86551 14.4002 3.87166 14.347 3.87985 14.2916C3.85936 14.4289 3.82247 14.5601 3.76919 14.6871L3.83067 14.5396C3.79173 14.6298 3.7446 14.7179 3.69131 14.7999C3.68926 14.804 3.65033 14.8654 3.64418 14.8654C3.64623 14.8654 3.75689 14.7302 3.68312 14.8142C3.65033 14.8511 3.61958 14.888 3.58475 14.9228C3.55401 14.9536 3.52122 14.9843 3.48638 15.013C3.44539 15.0478 3.37366 15.0806 3.52736 14.9843C3.50482 14.9986 3.48433 15.015 3.46178 15.0314C3.37981 15.0868 3.29169 15.1319 3.20152 15.1708L3.34907 15.1093C3.22201 15.1626 3.09085 15.1995 2.95355 15.22C3.00888 15.2118 3.06216 15.2056 3.11749 15.1974C2.95355 15.22 2.7896 15.2138 2.6236 15.2138C2.30185 15.2138 1.99445 15.4966 2.0088 15.8286C2.02314 16.1606 2.27931 16.4434 2.6236 16.4434Z" fill="#A0B5BE"/>
<path d="M1.63991 14.0969V9.3691C1.63991 8.92644 1.65221 8.48583 1.71164 8.04522C1.70344 8.10055 1.6973 8.15384 1.6891 8.20917C1.78337 7.52059 1.96781 6.8484 2.23832 6.20901L2.17684 6.35656C2.33259 5.98973 2.51703 5.63314 2.72607 5.29295C2.82854 5.12695 2.9351 4.9671 3.04987 4.8093C3.07856 4.76831 3.1093 4.72938 3.13799 4.69044C3.14823 4.67609 3.16053 4.66175 3.17078 4.6474C3.23636 4.55928 3.07241 4.77241 3.14004 4.68634C3.20152 4.60847 3.263 4.53059 3.32858 4.45681C3.58065 4.15761 3.85731 3.87685 4.15037 3.61863C4.22209 3.55715 4.29382 3.49567 4.3676 3.43419C4.40244 3.4055 4.43727 3.37681 4.47211 3.35017C4.50695 3.32147 4.59507 3.25794 4.43318 3.37886C4.45572 3.36246 4.47621 3.34607 4.49875 3.32967C4.65655 3.21081 4.8205 3.09605 4.98855 2.98948C5.36358 2.74971 5.75706 2.54272 6.16693 2.36853L6.01937 2.43001C6.65877 2.15949 7.33096 1.97505 8.01954 1.88078C7.9642 1.88898 7.91092 1.89513 7.85559 1.90332C8.55442 1.80905 9.26554 1.80905 9.96437 1.90332C9.90904 1.89513 9.85575 1.88898 9.80042 1.88078C10.489 1.97505 11.1612 2.15949 11.8006 2.43001L11.653 2.36853C12.0199 2.52428 12.3765 2.70872 12.7166 2.91775C12.8826 3.02022 13.0425 3.12679 13.2003 3.24155C13.2413 3.27024 13.2802 3.30098 13.3192 3.32967C13.3335 3.33992 13.3478 3.35221 13.3622 3.36246C13.4503 3.42804 13.2372 3.26409 13.3233 3.33172C13.4011 3.3932 13.479 3.45468 13.5528 3.52026C13.852 3.77233 14.1327 4.04899 14.391 4.34205C14.4524 4.41378 14.5139 4.4855 14.5754 4.55928C14.6041 4.59412 14.6328 4.62896 14.6594 4.6638C14.6881 4.69864 14.7516 4.78676 14.6307 4.62486C14.6471 4.6474 14.6635 4.6679 14.6799 4.69044C14.7988 4.84824 14.9135 5.01219 15.0201 5.18023C15.2599 5.55526 15.4669 5.94874 15.6411 6.35861L15.5796 6.21106C15.8501 6.85045 16.0345 7.52264 16.1288 8.21122C16.1206 8.15589 16.1145 8.1026 16.1063 8.04727C16.1677 8.50633 16.178 8.96538 16.178 9.42648V14.6113C16.178 15.0048 16.1944 15.4065 16.1432 15.7979C16.1514 15.7426 16.1575 15.6893 16.1657 15.634C16.1206 15.9537 16.0345 16.2672 15.9116 16.5664L15.9731 16.4189C15.8788 16.6443 15.762 16.8595 15.6267 17.0624C15.5939 17.1115 15.5591 17.1587 15.5263 17.2058C15.4505 17.3124 15.6165 17.0951 15.5488 17.1771C15.5324 17.1976 15.5161 17.2202 15.4976 17.2407C15.4197 17.3349 15.3398 17.423 15.2537 17.5091C15.1677 17.5952 15.0775 17.6772 14.9853 17.753C14.9648 17.7694 14.9443 17.7878 14.9217 17.8042C14.8377 17.8718 15.0427 17.714 14.9607 17.7735C14.9094 17.8104 14.8582 17.8473 14.807 17.8821C14.6041 18.0174 14.3889 18.1342 14.1635 18.2284L14.311 18.167C14.0118 18.2899 13.7003 18.376 13.3786 18.4211C13.4339 18.4129 13.4872 18.4067 13.5425 18.3985C13.2105 18.4436 12.8744 18.4334 12.5404 18.4334H10.9767C10.655 18.4334 10.3476 18.7162 10.3619 19.0482C10.3763 19.3822 10.6325 19.663 10.9767 19.663H12.5322C12.7269 19.663 12.9236 19.6671 13.1183 19.663C13.6368 19.6507 14.1594 19.5503 14.6389 19.3535C15.6206 18.9478 16.4608 18.2202 16.9363 17.2611C17.2662 16.5992 17.4117 15.8942 17.4117 15.1585V9.10474C17.4097 8.13949 17.2478 7.16195 16.9158 6.25409C16.5653 5.2909 16.055 4.41378 15.3972 3.62683C14.7783 2.88701 14.02 2.25171 13.19 1.76397C12.3396 1.26598 11.3928 0.909391 10.4214 0.739295C9.37416 0.556903 8.32079 0.563051 7.27767 0.761838C6.31653 0.94423 5.37793 1.31311 4.53974 1.8193C3.71385 2.31934 2.96379 2.96079 2.35719 3.7088C1.70754 4.50805 1.20545 5.39541 0.867309 6.36886C0.564005 7.24598 0.414403 8.18253 0.412354 9.10883V14.0969C0.412354 14.4187 0.695164 14.7261 1.02716 14.7118C1.3571 14.6954 1.63991 14.4412 1.63991 14.0969Z" fill="#A0B5BE"/>
<path d="M10.3599 19.0481C10.3599 19.1054 10.3558 19.1608 10.3476 19.2161C10.3558 19.1608 10.362 19.1075 10.3702 19.0521C10.3538 19.1608 10.3251 19.2653 10.2841 19.3677L10.3456 19.2202C10.3148 19.2899 10.28 19.3575 10.239 19.421C10.237 19.4251 10.2062 19.4784 10.2021 19.4764C10.2001 19.4764 10.3046 19.3514 10.2493 19.4149C10.2226 19.4456 10.196 19.4743 10.1693 19.503C10.1447 19.5276 10.1181 19.5522 10.0915 19.5747C10.0525 19.6096 9.99718 19.6219 10.1427 19.5358C10.1283 19.544 10.114 19.5563 10.0996 19.5665C10.032 19.6116 9.96029 19.6485 9.88652 19.6813L10.0341 19.6198C9.9316 19.6608 9.82709 19.6895 9.71847 19.7059C9.7738 19.6977 9.82709 19.6915 9.88242 19.6833C9.60576 19.7182 9.31475 19.6956 9.03604 19.6956C8.75118 19.6956 8.45607 19.7182 8.17121 19.6854C8.22654 19.6936 8.27983 19.6997 8.33516 19.7079C8.22859 19.6915 8.12408 19.6649 8.02366 19.626L8.17121 19.6874C8.09334 19.6547 8.01751 19.6157 7.94783 19.5686C7.89045 19.5296 7.88021 19.4846 7.97038 19.5891C7.94374 19.5583 7.90685 19.5337 7.87816 19.5051C7.85356 19.4805 7.80848 19.4436 7.79413 19.4128C7.81258 19.4374 7.83307 19.462 7.85151 19.4887C7.83922 19.4723 7.82692 19.4538 7.81463 19.4374C7.76749 19.3677 7.72855 19.2919 7.69576 19.214L7.75724 19.3616C7.71831 19.2612 7.68962 19.1587 7.67527 19.0501C7.68347 19.1054 7.68962 19.1587 7.69781 19.214C7.68552 19.1013 7.68347 18.9907 7.69781 18.88C7.68962 18.9353 7.68347 18.9886 7.67527 19.044C7.69166 18.9353 7.72036 18.8308 7.76134 18.7284L7.69986 18.8759C7.7306 18.8062 7.76544 18.7386 7.80643 18.6751C7.80848 18.671 7.83922 18.6177 7.84332 18.6197C7.84537 18.6197 7.74085 18.7447 7.79618 18.6812C7.82282 18.6505 7.84946 18.6218 7.87611 18.5931C7.9007 18.5685 7.92734 18.5439 7.95398 18.5214C7.99292 18.4865 8.04825 18.4742 7.90275 18.5603C7.91709 18.5521 7.93144 18.5398 7.94578 18.5296C8.01341 18.4845 8.08514 18.4476 8.15892 18.4148L8.01136 18.4763C8.11383 18.4353 8.21835 18.4066 8.32696 18.3902C8.27163 18.3984 8.21835 18.4046 8.16302 18.4128C8.43968 18.3779 8.73069 18.4005 9.0094 18.4005C9.29426 18.4005 9.58936 18.3779 9.87422 18.4107C9.81889 18.4025 9.76561 18.3964 9.71027 18.3882C9.81684 18.4046 9.92136 18.4312 10.0218 18.4701L9.87422 18.4087C9.9521 18.4414 10.0279 18.4804 10.0976 18.5275C10.155 18.5665 10.1652 18.6115 10.0751 18.507C10.1017 18.5378 10.1386 18.5624 10.1673 18.591C10.1919 18.6156 10.237 18.6525 10.2513 18.6833C10.2329 18.6587 10.2124 18.6341 10.1939 18.6074C10.2062 18.6238 10.2185 18.6423 10.2308 18.6587C10.2779 18.7284 10.3169 18.8042 10.3497 18.8821L10.2882 18.7345C10.3271 18.8349 10.3558 18.9374 10.3702 19.046C10.362 18.9907 10.3558 18.9374 10.3476 18.8821C10.3558 18.9374 10.3599 18.9927 10.3599 19.0481C10.364 19.3698 10.6407 19.6772 10.9747 19.6629C11.3047 19.6485 11.5936 19.3923 11.5895 19.0481C11.5813 18.3595 11.1899 17.6688 10.5546 17.3696C10.28 17.2405 10.0054 17.1688 9.70003 17.1667H8.52165C8.13227 17.1667 7.76339 17.2139 7.415 17.4065C6.86578 17.7078 6.53378 18.2672 6.46206 18.878C6.38008 19.5747 6.74896 20.249 7.32073 20.6301C7.67937 20.8699 8.09334 20.9273 8.51345 20.9273H9.70618C10.0218 20.9253 10.323 20.8453 10.6038 20.6998C11.2104 20.3822 11.5834 19.7223 11.5916 19.046C11.5957 18.7243 11.3067 18.4168 10.9768 18.4312C10.6386 18.4496 10.364 18.7038 10.3599 19.0481Z" fill="#A0B5BE"/>
</svg>
