<svg width="17" height="17" viewBox="0 0 17 17" fill="none" xmlns="http://www.w3.org/2000/svg">
<path d="M15.8793 10.0912H11.9989L12.6577 6.48156H15.8793C16.1186 6.48156 16.3481 6.38648 16.5174 6.21725C16.6866 6.04802 16.7817 5.81848 16.7817 5.57915C16.7817 5.33982 16.6866 5.11029 16.5174 4.94105C16.3481 4.77182 16.1186 4.67674 15.8793 4.67674H12.9825L13.6052 1.23857C13.6298 1.11792 13.6295 0.993514 13.6042 0.873005C13.5789 0.752496 13.5292 0.638435 13.4582 0.537841C13.3872 0.437247 13.2964 0.352249 13.1913 0.288077C13.0862 0.223906 12.9691 0.18192 12.8472 0.164702C12.7259 0.135823 12.6001 0.132365 12.4774 0.154548C12.3548 0.176731 12.2381 0.224072 12.1347 0.29359C12.0312 0.363108 11.9433 0.453294 11.8765 0.558467C11.8096 0.66364 11.7653 0.781519 11.7462 0.904677L11.0694 4.67674H7.56809L8.19075 1.23857C8.21536 1.11792 8.21501 0.993514 8.18973 0.873005C8.16446 0.752496 8.11479 0.638435 8.04378 0.537841C7.97277 0.437247 7.88193 0.352249 7.77684 0.288077C7.67176 0.223906 7.55465 0.18192 7.43273 0.164702C7.3115 0.135823 7.18561 0.132365 7.06297 0.154548C6.94034 0.176731 6.82364 0.224072 6.72021 0.29359C6.61678 0.363108 6.52887 0.453294 6.46202 0.558467C6.39517 0.66364 6.35083 0.781519 6.33179 0.904677L5.65498 4.67674H1.44074C1.2014 4.67674 0.971874 4.77182 0.802639 4.94105C0.633405 5.11029 0.53833 5.33982 0.53833 5.57915C0.53833 5.81848 0.633405 6.04802 0.802639 6.21725C0.971874 6.38648 1.2014 6.48156 1.44074 6.48156H5.32109L4.66234 10.0912H1.44074C1.2014 10.0912 0.971874 10.1863 0.802639 10.3555C0.633405 10.5247 0.53833 10.7543 0.53833 10.9936C0.53833 11.2329 0.633405 11.4625 0.802639 11.6317C0.971874 11.8009 1.2014 11.896 1.44074 11.896H4.33747L3.71481 15.3342C3.6902 15.4548 3.69055 15.5792 3.71582 15.6997C3.7411 15.8203 3.79077 15.9343 3.86178 16.0349C3.93278 16.1355 4.02363 16.2205 4.12871 16.2847C4.2338 16.3488 4.35091 16.3908 4.47283 16.408C4.59406 16.4369 4.71995 16.4404 4.84258 16.4182C4.96521 16.396 5.08192 16.3487 5.18535 16.2792C5.28878 16.2096 5.37669 16.1195 5.44354 16.0143C5.51039 15.9091 5.55473 15.7912 5.57377 15.6681L6.25057 11.896H9.75192L9.12926 15.3342C9.10465 15.4548 9.105 15.5792 9.13027 15.6997C9.15555 15.8203 9.20522 15.9343 9.27623 16.0349C9.34723 16.1355 9.43808 16.2205 9.54316 16.2847C9.64825 16.3488 9.76536 16.3908 9.88728 16.408C10.0085 16.4369 10.1344 16.4404 10.257 16.4182C10.3797 16.396 10.4964 16.3487 10.5998 16.2792C10.7032 16.2096 10.7911 16.1195 10.858 16.0143C10.9248 15.9091 10.9692 15.7912 10.9882 15.6681L11.665 11.896H15.8793C16.1186 11.896 16.3481 11.8009 16.5174 11.6317C16.6866 11.4625 16.7817 11.2329 16.7817 10.9936C16.7817 10.7543 16.6866 10.5247 16.5174 10.3555C16.3481 10.1863 16.1186 10.0912 15.8793 10.0912ZM6.58446 10.0912L7.24322 6.48156H10.7355L10.0768 10.0912H6.58446Z" fill="#A0B5BE"/>
</svg>
