<svg width="39" height="29" viewBox="0 0 39 29" fill="none" xmlns="http://www.w3.org/2000/svg">
<path d="M31.6393 14.5104C31.5553 14.5104 31.4762 14.532 31.3946 14.5344C31.5579 13.7368 31.6399 12.9247 31.6393 12.1105C31.6393 5.48457 26.2661 0.111328 19.6401 0.111328C13.0142 0.111328 7.64093 5.48457 7.64093 12.1105C7.64093 12.1513 7.65293 12.1897 7.65293 12.2305C3.5828 12.8113 0.441406 16.2791 0.441406 20.51C0.441406 22.7376 1.32635 24.8741 2.90155 26.4493C4.47675 28.0245 6.61318 28.9094 8.84085 28.9094H14.8597C15.1723 28.9094 15.4819 28.8478 15.7707 28.7282C16.0595 28.6086 16.322 28.4332 16.543 28.2121C16.7641 27.9911 16.9394 27.7286 17.0591 27.4398C17.1787 27.151 17.2403 26.8414 17.2403 26.5288V19.3101H12.1478L19.6401 9.71069L27.1324 19.3101H22.04V26.5288C22.04 27.8439 23.1055 28.9094 24.4206 28.9094H31.6393C32.5848 28.9094 33.521 28.7232 34.3945 28.3614C35.268 27.9996 36.0616 27.4693 36.7302 26.8007C37.3987 26.1322 37.929 25.3385 38.2908 24.465C38.6526 23.5916 38.8389 22.6554 38.8389 21.7099C38.8389 20.7644 38.6526 19.8282 38.2908 18.9548C37.929 18.0813 37.3987 17.2876 36.7302 16.6191C36.0616 15.9505 35.268 15.4202 34.3945 15.0584C33.521 14.6966 32.5848 14.5104 31.6393 14.5104Z" fill="#0A9EF2"/>
</svg>
