<svg width="22" height="23" viewBox="0 0 22 23" fill="none" xmlns="http://www.w3.org/2000/svg">
<path d="M10.8595 0.641602C8.02327 0.644831 5.30408 1.77297 3.29854 3.77852C1.29299 5.78406 0.164851 8.50325 0.161621 11.3395C0.161621 14.1978 1.27503 16.8837 3.29595 18.9031C4.28668 19.8999 5.46534 20.6902 6.76366 21.2282C8.06199 21.7662 9.45416 22.0413 10.8595 22.0374C13.6958 22.0342 16.415 20.9061 18.4205 18.9005C20.4261 16.895 21.5542 14.1758 21.5575 11.3395C21.5542 8.50325 20.4261 5.78406 18.4205 3.77852C16.415 1.77297 13.6958 0.644831 10.8595 0.641602ZM10.8595 2.16682C13.2914 2.16965 15.6229 3.13696 17.3425 4.85657C19.0621 6.57617 20.0294 8.90764 20.0322 11.3395C20.0302 13.6459 19.155 15.8659 17.5827 17.5533C16.5448 16.3246 15.1934 15.4001 13.672 14.878C14.2002 14.4497 14.6262 13.909 14.9191 13.2953C15.2119 12.6816 15.3643 12.0104 15.365 11.3304C15.3633 10.7291 15.2428 10.134 15.0107 9.5793C14.7785 9.0246 14.4392 8.52115 14.0122 8.0978C13.5852 7.67445 13.0788 7.33951 12.5221 7.11218C11.9654 6.88485 11.3693 6.76959 10.768 6.773C10.167 6.7748 9.57216 6.89512 9.01766 7.12707C8.46316 7.35903 7.95985 7.69806 7.53654 8.12478C7.11323 8.55149 6.77823 9.05749 6.55072 9.61383C6.3232 10.1702 6.20765 10.7659 6.21066 11.367C6.21066 12.7839 6.87565 14.0361 7.8945 14.8719C6.40412 15.3799 5.07483 16.2735 4.04179 17.4618C2.52271 15.7849 1.6831 13.6021 1.68684 11.3395C1.68967 8.90764 2.65698 6.57617 4.37659 4.85657C6.09619 3.13696 8.42766 2.16965 10.8595 2.16682ZM10.8062 8.29822C12.4793 8.29822 13.8383 9.65872 13.8383 11.367C13.8363 12.1527 13.5295 12.9069 12.9824 13.4709C12.4352 14.0348 11.6906 14.3643 10.9053 14.39C10.8611 14.39 10.8184 14.3808 10.7741 14.3808C10.736 14.3808 10.6994 14.3884 10.6613 14.39C9.87228 14.3591 9.12623 14.0226 8.58087 13.4516C8.0355 12.8806 7.73358 12.1199 7.73893 11.3304C7.73893 9.65872 9.09791 8.29822 10.8062 8.29822ZM10.6597 15.9121C10.6963 15.9137 10.7329 15.9243 10.7695 15.9243H10.8062C10.8397 15.9243 10.8672 15.9137 10.9007 15.9121C11.9648 15.9307 13.0122 16.1791 13.9712 16.6404C14.9303 17.1016 15.7783 17.7647 16.4571 18.5843C14.8585 19.8333 12.8882 20.5118 10.8595 20.5122C8.78491 20.5164 6.77116 19.8114 5.15215 18.5142C5.83271 17.7142 6.6759 17.0683 7.62556 16.6197C8.57522 16.171 9.60957 15.9298 10.6597 15.9121Z" fill="#31393C"/>
</svg>
