<svg width="147" height="146" viewBox="0 0 147 146" fill="none" xmlns="http://www.w3.org/2000/svg">
<path fill-rule="evenodd" clip-rule="evenodd" d="M73.4814 145.582C113.679 145.582 146.264 112.997 146.264 72.7998C146.264 32.6022 113.679 0.0175781 73.4814 0.0175781C33.2838 0.0175781 0.699219 32.6022 0.699219 72.7998C0.699219 112.997 33.2838 145.582 73.4814 145.582ZM95.3161 58.2434C95.3161 64.0343 93.0157 69.588 88.9209 73.6828C84.8261 77.7776 79.2724 80.078 73.4814 80.078C67.6905 80.078 62.1368 77.7776 58.042 73.6828C53.9472 69.588 51.6468 64.0343 51.6468 58.2434C51.6468 52.4524 53.9472 46.8987 58.042 42.8039C62.1368 38.7091 67.6905 36.4087 73.4814 36.4087C79.2724 36.4087 84.8261 38.7091 88.9209 42.8039C93.0157 46.8987 95.3161 52.4524 95.3161 58.2434ZM29.8121 109.191C34.8924 102.407 41.4847 96.901 49.0653 93.1107C56.6459 89.3203 65.006 87.35 73.4814 87.3562C81.9569 87.35 90.3169 89.3203 97.8976 93.1107C105.478 96.901 112.071 102.407 117.151 109.191C112.071 115.975 105.478 121.481 97.8976 125.271C90.3169 129.062 81.9569 131.032 73.4814 131.026C65.006 131.032 56.6459 129.062 49.0653 125.271C41.4847 121.481 34.8924 115.975 29.8121 109.191Z" fill="#D0D8DC"/>
</svg>
