<svg xmlns="http://www.w3.org/2000/svg" xmlns:xlink="http://www.w3.org/1999/xlink" width="500" zoomAndPan="magnify" viewBox="0 0 375 374.999991" height="500" preserveAspectRatio="xMidYMid meet" version="1.0"><defs><clipPath id="39f4961ca2"><path d="M 9.484375 8.699219 L 365.734375 8.699219 L 365.734375 366.449219 L 9.484375 366.449219 Z M 9.484375 8.699219 " clip-rule="nonzero"/></clipPath><clipPath id="7b5bd2d4b8"><path d="M 67.910156 67.910156 L 307.160156 67.910156 L 307.160156 307.160156 L 67.910156 307.160156 Z M 67.910156 67.910156 " clip-rule="nonzero"/></clipPath></defs><rect x="-37.5" width="450" fill="#ffffff" y="-37.499999" height="449.999989" fill-opacity="1"/><rect x="-37.5" width="450" fill="#ffffff" y="-37.499999" height="449.999989" fill-opacity="1"/><rect x="-37.5" width="450" fill="#ffffff" y="-37.499999" height="449.999989" fill-opacity="1"/><g clip-path="url(#39f4961ca2)"><path fill="#505050" d="M 9.484375 8.703125 L 365.734375 8.703125 L 365.734375 366.449219 L 9.484375 366.449219 L 9.484375 8.703125 " fill-opacity="1" fill-rule="nonzero"/></g><g clip-path="url(#7b5bd2d4b8)"><path fill="#ffffff" d="M 75.882812 195.507812 L 179.558594 195.507812 L 179.558594 299.183594 C 179.558594 303.589844 183.125 307.160156 187.535156 307.160156 C 191.941406 307.160156 195.507812 303.589844 195.507812 299.183594 L 195.507812 195.507812 L 299.183594 195.507812 C 303.59375 195.507812 307.160156 191.9375 307.160156 187.535156 C 307.160156 183.128906 303.59375 179.558594 299.183594 179.558594 L 195.507812 179.558594 L 195.507812 75.882812 C 195.507812 71.480469 191.941406 67.910156 187.535156 67.910156 C 183.125 67.910156 179.558594 71.480469 179.558594 75.882812 L 179.558594 179.558594 L 75.882812 179.558594 C 71.476562 179.558594 67.910156 183.128906 67.910156 187.535156 C 67.910156 191.9375 71.476562 195.507812 75.882812 195.507812 Z M 75.882812 195.507812 " fill-opacity="1" fill-rule="nonzero"/></g></svg>