<svg version="1.1" id="Layer_1" xmlns="http://www.w3.org/2000/svg" xmlns:xlink="http://www.w3.org/1999/xlink" x="0px" y="0px"
	 width="100%" viewBox="0 0 225 225" enable-background="new 0 0 225 225" xml:space="preserve">
<path fill="#10A9E9" opacity="1.000000" stroke="none" 
	d="
M150.000000,226.000000 
	C100.000000,226.000000 50.500008,226.000000 1.000007,226.000000 
	C1.000004,151.000000 1.000004,76.000015 1.000002,1.000017 
	C75.999992,1.000011 150.999985,1.000011 225.999969,1.000006 
	C225.999985,75.999985 225.999985,150.999969 226.000000,225.999969 
	C200.833328,226.000000 175.666672,226.000000 150.000000,226.000000 
M142.714432,102.780510 
	C143.419586,101.523926 144.124725,100.267342 144.978348,98.363983 
	C145.026779,97.924545 145.075211,97.485107 145.821167,96.888130 
	C153.347687,81.422012 156.931259,65.339058 153.424683,48.153328 
	C150.906281,35.810585 144.357330,26.382650 132.555573,21.578646 
	C123.571968,17.921795 114.140862,16.974880 104.351082,18.767078 
	C85.855812,22.152977 75.318932,33.387238 73.128387,51.318764 
	C71.252594,66.673828 73.341911,81.872993 80.293625,95.903999 
	C88.932823,113.340927 101.036530,121.707932 120.859116,118.121651 
	C127.054306,117.000832 133.475922,115.210968 137.767593,108.799072 
	C139.223358,106.883537 140.679108,104.968002 142.714432,102.780510 
M129.497543,127.226700 
	C129.193924,127.391281 129.004059,127.642006 128.111969,128.039047 
	C125.181206,128.467789 122.241547,128.843674 119.321266,129.334778 
	C108.777451,131.107941 97.866425,130.309692 90.077530,123.400879 
	C82.001541,116.237427 75.118599,117.166893 66.968811,121.150780 
	C65.831276,121.706848 64.782310,122.598030 63.588280,122.860275 
	C53.965981,124.973671 48.076126,131.021667 45.070599,140.163483 
	C40.134003,155.178955 37.976254,170.690018 37.063828,186.395035 
	C36.713120,192.431595 38.894138,195.411530 44.845684,196.957199 
	C56.955864,200.102325 69.056908,203.340408 81.287788,205.949066 
	C98.449478,209.609375 115.833694,210.317261 133.245712,207.883224 
	C150.155609,205.519379 167.013977,202.874496 183.072662,196.632019 
	C187.640457,194.856384 190.621323,192.004822 189.898270,186.991058 
	C187.708069,171.803970 185.638062,156.574677 182.585464,141.551971 
	C181.667221,137.033020 177.687988,133.136032 174.801483,128.355423 
	C172.877121,127.216751 170.952744,126.078087 168.722412,124.430779 
	C168.160873,124.271980 167.599350,124.113182 166.584030,123.379944 
	C161.360199,121.568237 155.979614,120.102249 150.965210,117.828651 
	C147.357483,116.192871 144.931793,116.428894 142.355835,120.075668 
	C141.574875,120.728821 140.793915,121.381973 139.343323,122.204185 
	C136.570435,123.826424 133.797562,125.448654 130.487076,127.061104 
	C130.318390,127.121689 130.149719,127.182281 129.497543,127.226700 
z"/>
<path fill="#FEFFFE" opacity="1.000000" stroke="none" 
	d="
M167.037811,123.954384 
	C167.599350,124.113182 168.160873,124.271980 168.955688,125.036011 
	C171.162979,126.745537 173.136993,127.849838 175.110992,128.954132 
	C177.687988,133.136032 181.667221,137.033020 182.585464,141.551971 
	C185.638062,156.574677 187.708069,171.803970 189.898270,186.991058 
	C190.621323,192.004822 187.640457,194.856384 183.072662,196.632019 
	C167.013977,202.874496 150.155609,205.519379 133.245712,207.883224 
	C115.833694,210.317261 98.449478,209.609375 81.287788,205.949066 
	C69.056908,203.340408 56.955864,200.102325 44.845684,196.957199 
	C38.894138,195.411530 36.713120,192.431595 37.063828,186.395035 
	C37.976254,170.690018 40.134003,155.178955 45.070599,140.163483 
	C48.076126,131.021667 53.965981,124.973671 63.588280,122.860275 
	C64.782310,122.598030 65.831276,121.706848 66.968811,121.150780 
	C75.118599,117.166893 82.001541,116.237427 90.077530,123.400879 
	C97.866425,130.309692 108.777451,131.107941 119.321266,129.334778 
	C122.241547,128.843674 125.181206,128.467789 128.712708,127.912399 
	C129.559708,127.634003 129.782242,127.453033 129.981033,127.242867 
	C130.149719,127.182281 130.318390,127.121689 131.003311,127.220886 
	C137.211563,129.365967 142.939148,129.333313 148.866562,128.661789 
	C145.532608,126.166428 142.772781,124.100777 140.012955,122.035126 
	C140.793915,121.381973 141.574875,120.728821 142.979431,120.186707 
	C150.113312,120.345177 155.494934,122.407951 160.377930,127.165710 
	C164.212234,130.901672 166.457779,129.460281 167.037811,123.954384 
z"/>
<path fill="#FEFFFE" opacity="1.000000" stroke="none" 
	d="
M137.164154,109.067261 
	C133.475922,115.210968 127.054306,117.000832 120.859116,118.121651 
	C101.036530,121.707932 88.932823,113.340927 80.293625,95.903999 
	C73.341911,81.872993 71.252594,66.673828 73.128387,51.318764 
	C75.318932,33.387238 85.855812,22.152977 104.351082,18.767078 
	C114.140862,16.974880 123.571968,17.921795 132.555573,21.578646 
	C144.357330,26.382650 150.906281,35.810585 153.424683,48.153328 
	C156.931259,65.339058 153.347687,81.422012 145.233643,97.024109 
	C144.707382,97.776970 144.768631,98.393867 144.829880,99.010757 
	C144.124725,100.267342 143.419586,101.523926 142.045929,102.865868 
	C140.466843,102.566521 139.560196,101.875885 138.644821,101.864090 
	C137.001755,101.842918 135.353409,102.229607 133.707275,102.445854 
	C134.222397,104.119804 134.616211,105.846443 135.309662,107.442940 
	C135.605621,108.124329 136.526978,108.534073 137.164154,109.067261 
z"/>
<path fill="#F7FCFA" opacity="1.000000" stroke="none" 
	d="
M166.810913,123.667160 
	C166.457779,129.460281 164.212234,130.901672 160.377930,127.165710 
	C155.494934,122.407951 150.113312,120.345177 143.260773,120.061424 
	C144.931793,116.428894 147.357483,116.192871 150.965210,117.828651 
	C155.979614,120.102249 161.360199,121.568237 166.810913,123.667160 
z"/>
<path fill="#F7FCFA" opacity="1.000000" stroke="none" 
	d="
M139.678131,122.119659 
	C142.772781,124.100777 145.532608,126.166428 148.866562,128.661789 
	C142.939148,129.333313 137.211563,129.365967 131.272110,127.225784 
	C133.797562,125.448654 136.570435,123.826424 139.678131,122.119659 
z"/>
<path fill="#F7FDF8" opacity="1.000000" stroke="none" 
	d="
M137.465881,108.933167 
	C136.526978,108.534073 135.605621,108.124329 135.309662,107.442940 
	C134.616211,105.846443 134.222397,104.119804 133.707275,102.445854 
	C135.353409,102.229607 137.001755,101.842918 138.644821,101.864090 
	C139.560196,101.875885 140.466843,102.566521 141.756134,103.001846 
	C140.679108,104.968002 139.223358,106.883537 137.465881,108.933167 
z"/>
<path fill="#F7FCFA" opacity="1.000000" stroke="none" 
	d="
M174.956238,128.654785 
	C173.136993,127.849838 171.162979,126.745537 169.108673,125.290329 
	C170.952744,126.078087 172.877121,127.216751 174.956238,128.654785 
z"/>
<path fill="#F7FDF8" opacity="1.000000" stroke="none" 
	d="
M144.904114,98.687370 
	C144.768631,98.393867 144.707382,97.776970 144.884888,97.102875 
	C145.075211,97.485107 145.026779,97.924545 144.904114,98.687370 
z"/>
<path fill="#F7FCFA" opacity="1.000000" stroke="none" 
	d="
M129.739288,127.234787 
	C129.782242,127.453033 129.559708,127.634003 129.120697,127.882309 
	C129.004059,127.642006 129.193924,127.391281 129.739288,127.234787 
z"/>
</svg>