<?xml version="1.0" encoding="utf-8"?>
<!-- Generator: Adobe Illustrator 21.0.0, SVG Export Plug-In . SVG Version: 6.00 Build 0)  -->
<svg version="1.1" id="Layer_1" xmlns="http://www.w3.org/2000/svg" xmlns:xlink="http://www.w3.org/1999/xlink" x="0px" y="0px"
	 viewBox="0 0 1280 700" style="enable-background:new 0 0 1280 700;" xml:space="preserve">
<style type="text/css">
	.st0{fill:#009DD5;}
	.st1{fill:#223154;}
</style>
<g>
	<path class="st0" d="M271,356.8l-0.5-38.4c-0.2-12.7-10.5-23-23.3-22.1h-59.4c-12.5-0.9-22.6,9.4-22.5,21.9l0.5,41.4
		c0.1,10.4,8.6,18.8,19,18.8h44L211,362.7l-20.5-0.1c-4,0-7.2-3.2-7.2-7.2v-37.4c0-3.1,2.5-5.6,5.6-5.6l58.8,0.1
		c2,0,3.7,1.7,3.7,3.7v41.6c0,2.7-2.2,4.9-4.9,4.9l-17.5,0v15.8l27.6,25.8l-8.3-25.8h1.3C261.6,378.5,271.2,368.7,271,356.8z"/>
	<g>
		<path class="st0" d="M384.9,296.8h-18.5v62.6c0,2.2-1.8,4-4,4h-54.1c-3.1,0-5.7-2.5-5.7-5.7v-60.9h-18.4l0.5,62.3
			c0.1,10.7,8.8,19.3,19.4,19.3h65.9c8.5,0,15.4-6.9,15.3-15.4L384.9,296.8z"/>
	</g>
	<g>
		<path class="st1" d="M989.4,296.8h-18.5v62.6c0,2.2-1.8,4-4,4h-54.1c-3.1,0-5.7-2.5-5.7-5.7v-60.9h-18.4l0.5,62.3
			c0.1,10.7,8.8,19.3,19.4,19.3h65.9c8.5,0,15.4-6.9,15.3-15.4L989.4,296.8z"/>
	</g>
	<path class="st0" d="M594.7,350.5c-0.1-6.9-2.5-13.1-7.1-17.7c-3.2-3.4-7.4-5.4-12.2-5.4H575c-1.1-0.2-2.2-0.3-3.4-0.3l-53.4-0.5
		c-2.6-1.2-4.5-3.8-4.5-6.9v-0.2c0-4.2,3.4-7.6,7.6-7.6h68.8l-10.3-14.1l-62.9-0.9c-11.9,0-21.5,9.6-21.5,21.5v3.2
		c0,11.9,9.6,21.5,21.5,21.5l55.1,0.8c3.4,1.4,4.7,5,4.8,8.6l0,0.2c0.1,4.6-0.5,10-8,10l-70.8,0.1l0.3,15.2h73.7
		c17.8,0,22.7-11.9,22.6-23.9L594.7,350.5z"/>
	<polygon class="st0" points="484.3,312 484.3,296.3 406,296.3 406,296.5 399.4,296.5 399.4,378 406,378 406,378.3 484.3,378.3 
		484.3,362.6 420.1,362.6 420.1,342.2 475.3,342.2 475.3,326.5 420.1,326.5 420.1,312 	"/>
	<polygon class="st1" points="1086.7,312.3 1086.7,296.5 1008.4,296.5 1008.4,296.8 1001.8,296.8 1001.8,378.3 1008.4,378.3 
		1008.4,378.6 1086.7,378.6 1086.7,362.8 1022.6,362.8 1022.6,342.5 1077.8,342.5 1077.8,326.7 1022.6,326.7 1022.6,312.3 	"/>
	<polygon class="st0" points="690.4,312.6 679,296.9 652.2,296.9 652.2,296.8 634,296.8 634,296.9 593.3,296.9 604.5,312.6 
		634,312.6 634,378.3 652.2,378.3 652.2,312.6 	"/>
	<polygon class="st1" points="873,362.7 825.6,363.1 825.6,296.5 807.4,296.5 807.4,378 822.5,378 825.6,378 884.2,378 	"/>
	<path class="st1" d="M795.2,323.4v-8.7c0-10.1-8.2-18.2-18.2-18.2h-85.2l11.7,14.6l66.2,0.1c3.8,0,6.9,3.1,6.9,6.9v3.8
		c0,3.8-3.1,6.9-6.9,6.9l-66.2-0.1v7.4h0l0.1,41l72.7,1.1c10.4,0.2,19-8.3,18.9-18.7l-0.1-13.1c0-5.1-3.2-9.5-7.7-11.3
		C792,333.2,795.2,328.7,795.2,323.4z M776.6,357.8c0,3-2.4,5.4-5.4,5.4h-49.6v-19.6h49.6c3,0,5.4,2.4,5.4,5.4V357.8z"/>
	<polygon class="st1" points="1098.5,296.8 1088.4,296.8 1088.4,299.7 1091.4,299.7 1091.4,309.9 1095.4,309.9 1095.4,299.7 
		1098.5,299.7 	"/>
	<polygon class="st1" points="1111.6,296.8 1111.6,296.8 1108.4,300.7 1107.6,301.6 1103.6,296.8 1103.6,296.8 1100.6,296.8 
		1100.6,309.9 1103.6,309.9 1103.6,304.8 1103.6,301.3 1105.7,303.8 1106.5,304.8 1107.6,306.1 1109.5,303.8 1111.6,301.3 
		1111.6,304.7 1111.6,309.9 1114.6,309.9 1114.6,296.8 	"/>
</g>
</svg>
